<?xml version="1.0" encoding="utf-8"?>
<!-- Generator: Adobe Illustrator 22.1.0, SVG Export Plug-In . SVG Version: 6.00 Build 0)  -->
<svg version="1.1" id="Layer_1" xmlns="http://www.w3.org/2000/svg" xmlns:xlink="http://www.w3.org/1999/xlink" x="0px" y="0px"
	 viewBox="0 0 210 143" style="enable-background:new 0 0 210 143;" xml:space="preserve">
<style type="text/css">
	.st0{fill:#F7CB5F;}
</style>
<path d="M170.1,134.5c-1.9-3.6-3.7-6.8-5.5-10.1c-0.6,0.3-1.2,0.4-1.4,0.8c-6,7.8-6,7.8-13.5,0.7c-3.2,3.7-6.4,7.4-10,11.6
	c-2.5-3.8-4.6-7.2-7.3-11.4c-3.5,4.1-6.7,7.8-10.6,12.4c-2.8-5.9-4.9-10.3-7.3-15.3c-4.3,4.8-8.2,9.1-12.4,13.8
	c-2-4.2-3.6-7.7-5.5-11.6c-4.6,4.8-8.6,9-13,13.7c-2.8-4.9-5.2-8.9-7.8-13.5c-5.2,4.2-9.7,7.9-14.8,12c-1.7-3.6-3.1-6.6-4.7-10
	c-4.9,3.4-9.5,6.5-14.5,10c-1.9-5.1-3.6-9.7-5.4-14.7c-5.8,2.1-10.9,4-17,6.2c0.5-3.7,0.8-6.3,1.4-8.9c0.6-2.9-0.2-4.5-3.3-5.2
	c-3.5-0.8-6.9-2-10.4-3.2c-2.7-0.9-3-2.7-1-4.7c2.5-2.4,5.1-4.5,8.2-7.2c-3.6-2.7-6.8-5.4-10.4-7.7c-4-2.6-3.1-4.7,0.1-7
	c1.8-1.3,3.6-2.6,5.9-4.3c-2.7-2.6-5.2-4.9-7.6-7.3c-2.5-2.5-2.4-4.3,1.1-5.8c1.8-0.8,3.5-2,5.4-3.2c-2.8-3.8-5.2-7.1-7.6-10.4
	c-1.9-2.6-1.5-4.4,1.7-6.1c8.7-4.5,8.5-4.7,6.5-14C8.7,31.6,8.5,28.9,8,25c5,2.1,8.9,3.8,13.1,5.6c1.2-5.7,2.3-10.9,3.7-17.4
	c4,3.7,6.9,6.5,10.5,9.9c3.1-4.9,6.1-9.6,9.8-15.4c2.7,4.5,4.8,8,7.2,12.1c3.2-3.5,6.2-6.7,9.9-10.6c1.9,4,3.4,6.9,5.1,10.4
	c2.1-2.4,3.8-4.5,5.8-6.9c2,1.8,3.8,3.4,5.8,5.3c2.8-4.4,5.5-8.6,8.9-13.9c3.4,5.7,6.3,10.6,9.5,16.2c3.5-4.2,6.6-8,10.5-12.7
	c1.4,5.5,2.5,10.2,3.9,15.7c4.2-4.4,7.7-8.2,12-12.7c1.6,3.8,2.9,6.6,4.9,11.5c3.5-4.8,6.5-8.9,9.5-13c0.6,0.4,1.3,0.8,1.9,1.1
	c0.9,3.9,1.8,7.8,2.7,11.7c0.6,0.4,1.2,0.8,1.8,1.2c2.9-4.3,5.7-8.5,8.6-12.8c0.8,0.5,1.6,0.9,2.4,1.4c1.1,4.3,2.3,8.6,3.6,13.5
	c6-3.9,11.3-7.4,17.9-11.7c-0.4,6.1-0.7,11-1,16c6.7-2,12.8-3.8,18.9-5.6c0.4,0.6,0.8,1.1,1.2,1.7c-3,4.4-6,8.9-9.4,13.9
	c5.2,0.9,9.9,1.6,16,2.7c-3.6,3.8-6.4,6.7-9.6,10.1c5,3.3,9.7,6.5,15.6,10.4c-5.2,1.6-8.8,2.8-13.4,4.2c2.8,2,4.7,3.4,6.6,4.6
	c3.6,2.2,3.8,4.2-0.2,6.2c-1.2,0.6-2.3,1.3-3.7,2.2c3.2,3.3,6.1,6.4,9.7,10.2c-4.1,1.6-7.4,2.9-11.4,4.5c2.4,5.2,4.8,10.3,7.6,16.3
	c-3.5,0.6-6.5,1-9.9,1.6c0.3,5,0.5,9.9,0.9,16.6c-4.2-2.7-7.1-4.5-9.9-6.5c-4.8-3.3-5.4-3.1-8.2,2c-1.5,2.7-3,5.4-4.7,8
	C172.1,133,171.3,133.5,170.1,134.5z M28.7,18.7c-0.9,0.5-1.8,1-2.7,1.5c0,3-0.1,5.9,0,8.9c0.3,5.6-0.9,6.5-6.3,4.7
	c-2.3-0.8-4.6-1.7-7.2-2.7c-0.1,1.1-0.2,1.6-0.1,2.1c0.4,1.5,0.8,3,1.3,4.5c2.6,7.5,2.7,7.5-4.6,11.3c-0.5,0.2-0.9,0.5-1.4,0.7
	c-3.3,1.3-3.7,3.4-1.5,6c2.6,3.1,5.2,6.3,8.1,9.8c-3.2,2.2-6.1,4.2-9.4,6.5C8.9,75,12.3,78,16,81.1c-3.7,2.8-6.8,5.3-10.7,8.3
	c4.1,2.5,7.3,4.5,10.4,6.6c3.7,2.3,3.8,4.2,0.4,7.1c-1.9,1.6-3.8,3.3-6.6,5.7c4.9,1.3,8.9,1.9,12.5,3.3c5.5,2.1,1.3,7,2.8,11
	c2.6-1.2,5.2-2.4,7.8-3.7c3.2-1.5,5.6-1.3,6.9,2.5c1.2,3.2,2.7,6.3,4.3,10c4.5-3.2,8.7-6.3,13.5-9.7c1.8,3.4,3.5,6.4,5.3,9.8
	c4.2-3.9,8.1-7.5,12.7-11.8c3.2,4.3,6.1,8.3,9.2,12.6c3.8-4.1,7.7-8.1,12.1-12.8c2.5,3.7,4.6,6.8,7,10.5c3.4-4.2,6.8-8.3,10.9-13.4
	c2.9,5.3,5.5,9.8,8.3,14.9c3.3-3.8,6.3-7.2,9.7-11c2.7,3.7,5.2,7,7.9,10.6c3.1-3.7,6.1-7.3,9.4-11.3c2.7,3,4.9,5.4,7.4,8.1
	c2.4-3.7,4.6-7,7.2-10.9c2.5,4.2,4.5,7.5,6.9,11.4c2.8-5.2,5.2-9.9,7.7-14.5c4.5,3.4,8.1,6.1,11.6,8.8c0.8-2.9,0.6-5,0.4-7
	c-1-7.4-1-7.4,6.4-8.1c0.3,0,0.5-0.4,1.1-0.9c-0.6-1.4-1.2-2.8-1.9-4.1c-4.9-9.5-4.9-9.5,4.4-13.7c0.3-0.1,0.4-0.5,0.7-1.1
	c-0.9-0.9-1.7-2-2.7-2.9c-6.4-5.8-6.4-5.8,0.6-10.3c0.2-0.1,0.1-0.6,0.3-1.4c-3.2-2-6.4-4-10.9-6.8c4.5-2.2,8.1-3.8,12.3-5.9
	c-3.7-2-6.7-3.8-9.8-5.2c-3.4-1.5-3.9-3.2-1-5.6c1.9-1.6,4-3.1,6-4.6c-0.4-0.6-0.7-1.2-1.1-1.8c-2.9-0.3-5.7-0.6-8.6-0.9
	c-4.2-0.5-4.8-1.8-2.5-5.3c2-2.9,4.1-5.8,6.1-8.7c-0.3-0.3-0.5-0.7-0.8-1c-5.3,2.1-10.5,4.2-16.4,6.5c0-5.2,0-9.6,0-14.9
	c-4.3,3.3-7.8,6.1-11.4,8.7c-3,2.2-5.1,1.7-6-2.1c-0.7-3-1.5-5.9-2.2-8.9c-0.5-0.4-1-0.7-1.5-1.1c-3.1,4.2-6.3,8.4-9.4,12.6
	c-0.7-0.4-1.3-0.8-2-1.2c-1-4-2.1-8-3.3-12.8c-4,4.3-7.5,8-11.4,12.2c-1.3-4.1-2.2-7.3-3.6-11.5c-4.3,4.9-7.8,8.9-12.1,13.9
	c-1.7-5.3-3.1-9.5-4.7-14.5c-3.3,4.1-6.2,7.7-9.4,11.7c-3-5.6-5.7-10.4-8.8-16.1c-3.1,5.3-5.6,9.5-8.2,14c-2.2-2.4-4.1-4.4-6.2-6.6
	c-2.1,2.7-3.7,4.8-6,7.7c-2.4-4.1-4.3-7.3-6.3-10.7c-3.1,3.5-5.9,6.7-9.2,10.5c-2.6-4.4-4.5-7.7-7.1-12.1c-1.8,3.9-3.4,6.8-4.7,9.9
	c-2.2,5.1-3.1,5.5-7.1,1.4C31.1,23,30,20.7,28.7,18.7z"/>
<path class="st0" d="M28.7,18.7c1.3,2,2.4,4.3,4,6c3.9,4.1,4.9,3.8,7.1-1.4c1.3-3.1,2.9-6.1,4.7-9.9c2.5,4.4,4.5,7.7,7.1,12.1
	c3.3-3.8,6.2-7,9.2-10.5c2,3.4,3.9,6.7,6.3,10.7c2.3-2.9,4-5.1,6-7.7c2.1,2.2,4,4.2,6.2,6.6c2.6-4.5,5.1-8.7,8.2-14
	c3.1,5.7,5.8,10.6,8.8,16.1c3.2-3.9,6-7.5,9.4-11.7c1.6,5,3,9.1,4.7,14.5c4.3-5,7.8-9,12.1-13.9c1.3,4.2,2.3,7.4,3.6,11.5
	c4-4.2,7.4-7.9,11.4-12.2c1.2,4.8,2.3,8.8,3.3,12.8c0.7,0.4,1.3,0.8,2,1.2c3.1-4.2,6.3-8.4,9.4-12.6c0.5,0.4,1,0.7,1.5,1.1
	c0.7,3,1.5,5.9,2.2,8.9c0.9,3.8,3,4.3,6,2.1c3.6-2.7,7-5.4,11.4-8.7c0,5.3,0,9.6,0,14.9c5.8-2.3,11.1-4.4,16.4-6.5
	c0.3,0.3,0.5,0.7,0.8,1c-2,2.9-4.1,5.8-6.1,8.7c-2.3,3.4-1.7,4.8,2.5,5.3c2.9,0.3,5.7,0.6,8.6,0.9c0.4,0.6,0.7,1.2,1.1,1.8
	c-2,1.5-4,3-6,4.6c-2.9,2.4-2.3,4.1,1,5.6c3.1,1.4,6,3.2,9.8,5.2c-4.3,2-7.8,3.7-12.3,5.9c4.5,2.8,7.7,4.8,10.9,6.8
	c-0.2,0.8-0.1,1.3-0.3,1.4c-7,4.5-7,4.5-0.6,10.3c1,0.9,1.8,2,2.7,2.9c-0.3,0.5-0.4,0.9-0.7,1.1c-9.3,4.2-9.3,4.2-4.4,13.7
	c0.7,1.3,1.3,2.7,1.9,4.1c-0.5,0.5-0.8,0.8-1.1,0.9c-7.4,0.6-7.4,0.6-6.4,8.1c0.3,2,0.5,4-0.4,7c-3.6-2.7-7.2-5.4-11.6-8.8
	c-2.4,4.6-4.9,9.3-7.7,14.5c-2.3-3.9-4.3-7.2-6.9-11.4c-2.6,4-4.8,7.3-7.2,10.9c-2.5-2.8-4.6-5.1-7.4-8.1c-3.3,4-6.3,7.6-9.4,11.3
	c-2.7-3.6-5.1-6.9-7.9-10.6c-3.4,3.9-6.4,7.3-9.7,11c-2.8-5.1-5.4-9.6-8.3-14.9c-4.1,5-7.5,9.2-10.9,13.4c-2.4-3.6-4.5-6.7-7-10.5
	c-4.4,4.7-8.2,8.7-12.1,12.8c-3.2-4.3-6.1-8.3-9.2-12.6c-4.7,4.3-8.5,7.9-12.7,11.8c-1.8-3.4-3.5-6.4-5.3-9.8
	c-4.8,3.5-9.1,6.5-13.5,9.7c-1.6-3.7-3.2-6.8-4.3-10c-1.4-3.8-3.8-4-6.9-2.5c-2.6,1.2-5.1,2.4-7.8,3.7c-1.5-4,2.7-9-2.8-11
	c-3.6-1.4-7.6-2-12.5-3.3c2.8-2.4,4.7-4.1,6.6-5.7c3.4-2.9,3.3-4.8-0.4-7.1c-3.2-2-6.4-4-10.4-6.6c3.9-3,7.1-5.5,10.7-8.3
	C12.3,78,8.9,75,5.1,71.8c3.3-2.3,6.2-4.3,9.4-6.5c-2.9-3.5-5.5-6.6-8.1-9.8c-2.2-2.6-1.8-4.7,1.5-6c0.5-0.2,0.9-0.4,1.4-0.7
	c7.3-3.8,7.3-3.8,4.6-11.3c-0.5-1.5-1-3-1.3-4.5c-0.1-0.5,0-1,0.1-2.1c2.5,1,4.8,1.9,7.2,2.7c5.4,1.8,6.5,0.8,6.3-4.7
	c-0.1-3,0-5.9,0-8.9C26.9,19.6,27.8,19.2,28.7,18.7z M145.4,101.3c0.7,0.2,1.3,0.4,2,0.7c0.4-1.6,1.3-3.4,1.1-4.9
	c-0.5-4.5,1.7-6.6,5.8-6.6c3.4,0,6.9,1.1,10.2,0.9c4.7-0.3,6.4,1.8,7.1,6.1c0.4,2.7,1.8,5.2,3,8.4c3.5-5.6-8.8-50.7-15.3-57
	C154,66.5,144.1,82.3,145.4,101.3z M70.3,98.8c0.8,0.3,1.6,0.6,2.3,1c2.4-3.7,1.2-10.4,7.6-10.9c4.9-0.3,9.8-0.1,14.7-0.1
	c1.3,4.8,2.4,8.8,3.8,14.1c3.2-6-7.3-54-12.2-58.9C77.7,61.6,76,80.7,70.3,98.8z M126.9,101.4c0.6,0.1,1.3,0.1,1.9,0.2
	c9.4-18.1,9.8-38.6,15-58c-1.7,0.8-3.1,1.8-3.4,3.1c-1.7,7.4-3.1,14.9-4.8,22.2c-1.9,8.1-4.1,16.1-6.1,24.1
	c-0.6-0.1-1.1-0.2-1.7-0.3c-2.6-5-5.2-10.1-7.9-15c-2.2-4-5.2-7.7-7-11.9c-2.2-5.2-3.4-10.9-5.3-16.2c-0.5-1.3-2.1-2.1-3.2-3.2
	c-0.2,1.4-0.8,2.8-0.6,4.1c0.4,2.4,1,4.8,1.9,7c2.8,6.8,5.7,13.6,8.9,20.2c2.3,4.6,5.4,8.7,7.8,13.3
	C124.3,94.3,125.5,97.9,126.9,101.4z M36.5,35.9c-0.7-0.1-1.3-0.3-2-0.4c-0.6,4.9-1.8,9.8-1.6,14.7c0.6,13.2,1.9,26.4,2.5,39.6
	c0.3,5.8,0.5,6.6,6.3,6.7c7,0.2,14.1,0.4,21.1,0.4c1,0,2-1.3,3-2c-0.8-0.8-1.4-1.9-2.4-2.2c-1.2-0.4-2.7-0.3-4.1-0.3
	c-5.5,0-11,0.2-16.5-0.1c-1.2-0.1-3.1-2-3.2-3.2c-1.1-17.6-2-35.2-2.9-52.8C36.8,36.1,36.6,36,36.5,35.9z"/>
<path d="M145.4,101.3c-1.3-19,8.6-34.8,13.8-52.6c6.5,6.3,18.8,51.5,15.3,57c-1.2-3.2-2.6-5.7-3-8.4c-0.7-4.3-2.4-6.4-7.1-6.1
	c-3.4,0.2-6.8-0.9-10.2-0.9c-4.1,0-6.3,2.1-5.8,6.6c0.2,1.6-0.7,3.3-1.1,4.9C146.7,101.8,146,101.5,145.4,101.3z M168.6,87.1
	c-0.4-10.6-3.6-19.5-9.6-28.8c-3.4,9.9-6.4,18.8-9.4,27.7C156.6,86.4,162.2,86.7,168.6,87.1z"/>
<path d="M70.3,98.8C76,80.7,77.7,61.6,86.6,44C91.5,49,102,97,98.8,102.9c-1.4-5.3-2.5-9.3-3.8-14.1c-4.9,0-9.8-0.3-14.7,0.1
	c-6.4,0.4-5.2,7.1-7.6,10.9C71.9,99.5,71.1,99.1,70.3,98.8z M88.2,52.5c-0.9,0-1.8,0.1-2.7,0.1c-2.8,10.6-5.5,21.1-8.2,31.6
	c6,0,11,0,16.6,0C92,73.5,90.1,63,88.2,52.5z"/>
<path d="M126.9,101.4c-1.4-3.5-2.6-7.1-4.4-10.4c-2.4-4.5-5.6-8.7-7.8-13.3c-3.3-6.6-6.1-13.4-8.9-20.2c-0.9-2.2-1.5-4.6-1.9-7
	c-0.2-1.3,0.4-2.7,0.6-4.1c1.1,1,2.8,1.9,3.2,3.2c1.9,5.3,3.1,11,5.3,16.2c1.8,4.2,4.7,7.9,7,11.9c2.7,4.9,5.3,10,7.9,15
	c0.6,0.1,1.1,0.2,1.7,0.3c2-8,4.2-16,6.1-24.1c1.7-7.4,3.1-14.9,4.8-22.2c0.3-1.3,1.7-2.4,3.4-3.1c-5.3,19.4-5.6,40-15,58
	C128.2,101.6,127.5,101.5,126.9,101.4z"/>
<path d="M36.5,35.9c0.1,0.1,0.3,0.2,0.3,0.3c0.9,17.6,1.8,35.2,2.9,52.8c0.1,1.2,2,3.2,3.2,3.2c5.5,0.3,11,0.1,16.5,0.1
	c1.4,0,2.8-0.1,4.1,0.3c0.9,0.3,1.6,1.5,2.4,2.2c-1,0.7-2,2-3,2c-7,0-14.1-0.2-21.1-0.4c-5.8-0.1-6-0.9-6.3-6.7
	c-0.6-13.2-2-26.4-2.5-39.6c-0.2-4.9,1-9.8,1.6-14.7C35.1,35.7,35.8,35.8,36.5,35.9z"/>
<path class="st0" d="M168.6,87.1c-6.4-0.4-12-0.7-19.1-1.1c3-8.9,6.1-17.8,9.4-27.7C165.1,67.5,168.2,76.5,168.6,87.1z"/>
<path class="st0" d="M88.2,52.5C90.1,63,92,73.5,93.8,84.2c-5.6,0-10.6,0-16.6,0c2.7-10.4,5.5-21,8.2-31.6
	C86.4,52.6,87.3,52.5,88.2,52.5z"/>
</svg>
