<?xml version="1.0" encoding="utf-8"?>
<!-- Generator: Adobe Illustrator 22.1.0, SVG Export Plug-In . SVG Version: 6.00 Build 0)  -->
<svg version="1.1" id="Layer_1" xmlns="http://www.w3.org/2000/svg" xmlns:xlink="http://www.w3.org/1999/xlink" x="0px" y="0px"
	 viewBox="0 0 210 143" style="enable-background:new 0 0 210 143;" xml:space="preserve">
<style type="text/css">
	.st0{fill:#F7CB5F;}
</style>
<path d="M145.2,139.5c-2.3-3.9-4.1-6.8-6.1-10.1c-4.2,3.9-8,7.4-12.3,11.4c-2.1-4.6-3.9-8.4-6-13.1c-3.7,3.8-6.7,7-9.8,10.1
	c-2.7,2.7-4.8,2.4-6.3-1.4c-1-2.6-2.3-5.1-3.9-8.4c-3.1,4.2-5.7,7.8-8.9,12.3c-2.3-4.8-4.1-8.6-6-12.7c-4.6,5.1-8.9,9.8-13.7,15.1
	c-3.9-6.1-7.2-11.1-10.7-16.4c-4.4,3.8-8.2,7.1-12.9,11.1c-2.2-5.1-4-9.3-5.8-13.6c-5.8,2.3-11.4,4.6-18.2,7.3
	c0.8-5.5,1.4-9.9,2.1-14.7c-4.8-0.7-9.2-1.4-14.9-2.3c2.8-4.9,5.1-9.1,7.5-13.4c-5.1-2.4-10-4.6-16.2-7.5c5.2-3.3,9.3-5.9,13.6-8.7
	c-4.6-3.7-8.9-7-14.1-11.1c5.2-2.2,9.4-4,13.8-5.8c-5.2-5.3-9.9-10.1-15.6-16c6.4-1.6,11.2-2.9,16.2-4.2c-2.6-6.4-8.9-10.3-8.6-18.2
	c4,0.6,7.5,1,11.1,1.5c3.9,0.6,6-0.5,5.8-5c-0.1-3.3,0.4-6.5,0.6-9.8c0.5-0.4,0.9-0.7,1.4-1.1c4.8,3.7,9.6,7.5,14.6,11.4
	c2.3-5.7,4.5-11.3,7.2-17.9c2.9,4.3,5.2,7.7,8.1,12c2.4-5.1,4.4-9.4,6.9-14.7c2.3,4.5,4.1,7.9,6.3,12.3c2.7-5.4,5.1-10.2,7.8-15.8
	c2.8,4.2,5.1,7.7,7.8,11.8c2.4-4.1,4.4-7.5,6.9-11.7c2.3,4.6,4.2,8.3,6.5,12.8c3.5-4,6.5-7.4,10.2-11.6c1.5,4,2.7,7.2,4.1,10.8
	c3.5-4.1,6.6-7.7,10.3-12.1c1.8,4.1,3,7.1,4.6,10.8c3.5-4.6,6.7-8.7,10.8-14c2,5,3.5,8.6,5.5,13.4c3.1-3.9,5.8-7.2,8.4-10.5
	c0.6,0.2,1.1,0.4,1.7,0.6c1.2,4,2.5,7.9,4.1,13c4.3-3.9,8-7.2,12.9-11.6c0.3,5.1,0.5,8.7,0.8,13c4.5-1.5,8.9-3,14.6-4.9
	c-1.3,5.4-2.3,9.8-3.5,14.6c4.6,1.1,9.3,2.3,15.2,3.7c-3.5,3.2-6.1,5.5-8.8,8c4.9,2.6,9.2,4.9,14.7,7.9c-4.3,2.6-7.5,4.7-11,6.9
	c4.4,3.4,8.5,6.7,13.5,10.5c-3.4,1.9-5.5,3.2-8.1,4.7c3.1,2.1,6,3.9,8.8,5.9c2.7,1.9,2.6,3.9,0,6c-2.4,2-4.7,4.2-7.2,6.5
	c3.3,4.1,6.3,8,10.2,12.9c-5,0.6-9.1,1-13.8,1.5c2.5,5.6,4.7,10.7,7.5,17.1c-5.9-1.5-10.6-2.7-15.6-4c0.3,5.3,0.4,10,0.8,14.6
	c0.4,3.8-1.6,4.1-4.2,2.8c-2.7-1.3-5.1-3.1-7.7-4.6c-3.1-2-5.6-2.3-7.6,1.8c-1.6,3.2-3.9,6-6.5,9.8c-2.9-3.8-5.2-6.8-7.6-10
	C152.9,132.3,149.3,135.6,145.2,139.5z M43.9,31.8c-5.1-4.4-9.6-8.1-15.2-12.9c0,6.9,0,12.1,0,16.7c-5.2-1.1-9.9-2-14.6-3
	c-0.3,0.4-0.7,0.9-1,1.3c2,2.9,3.8,6,6,8.7c4,5,3.7,6.1-2.6,7.9c-2.9,0.8-5.9,1.5-10.2,2.6c5.9,5.4,10.7,9.9,16.2,14.9
	c-4.8,2.2-8.8,4.1-13.8,6.4c5.1,3.5,9.6,6.5,14.7,10.1C18.7,87.4,14.6,90,9.7,93c3.8,1.5,6.9,2.7,9.9,3.9c5.5,2.1,5.7,2.6,2.2,7.6
	c-1.6,2.3-3,4.7-5,7.7c5.9,0.7,10.4,1.2,14.7,1.7c-1.1,4.1-2.1,7.8-3.2,11.4c0.4,0.4,0.9,0.7,1.3,1.1c5.1-2.5,10.2-5.1,15.6-7.7
	c1.5,4.1,2.9,8.1,4.6,12.7c4.4-3.8,8.2-7.1,12.3-10.6c3.8,6,6.9,11.1,10.7,17.1c4.6-5.5,8.6-10.3,13.3-15.9
	c2.4,4.5,4.3,8.2,6.6,12.6c2.6-4.2,4.9-7.9,7.9-12.6c2.9,5.1,5.1,9.2,7.9,14.1c4.3-4.6,8.2-8.7,12.6-13.4c2.5,4.5,4.6,8.3,7.6,13.5
	c3.8-4.3,7-8,10.7-12.2c2.4,3.6,4.4,6.7,6.9,10.4c3.7-4,7.1-7.7,10.8-11.6c2.5,3.5,4.7,6.5,7.4,10.2c2-3,4-5.3,5.1-8
	c1.7-4.2,4.2-4.1,7.4-2.1c2.9,1.8,5.8,3.4,10,5.9c-0.9-6.7-1.6-12-2.4-18.1c5,1.2,9.4,2.2,14.7,3.4c-2.6-5.5-4.7-10-7.2-15.2
	c4.3-0.7,7.8-1.3,12.1-2c-3.1-4.1-5.9-7.7-8.3-10.9c3.5-2.7,6.7-5.2,10.9-8.5c-5.3-3.1-9.6-5.7-14.5-8.6c3.3-1.8,5.8-3.2,9.6-5.3
	c-5-3.4-9.3-6.4-14.2-9.7c3.9-2.6,7.2-4.7,11.1-7.3c-5.3-2.4-9.7-4.5-14.6-6.7c2.7-2.8,4.8-5,6.7-7.1c-4-3.4-10.7,1.7-12.8-3.2
	c2.4-4.5,4.1-7.6,5.9-10.8c-0.4-0.4-0.9-0.8-1.3-1.2c-4.4,1.6-8.8,3.2-13.6,5c0-3.9,0-7.2,0-10.4c-0.5-0.3-1-0.6-1.4-0.9
	c-2,2.4-4,4.9-6.1,7.3c-2.3,2.6-4.1,1.8-5.1-1.1c-1-2.9-1.8-5.9-3.1-10.5c-3.5,4.1-6.3,7.5-9.7,11.4c-1.8-4.8-3.2-8.6-5.1-13.6
	c-3.7,5.3-6.7,9.7-10.3,15c-1.9-4.2-3.5-7.5-5.5-11.8c-3.3,4.6-6,8.5-9.4,13.2c-1.8-4.2-3.2-7.5-4.8-11.4c-3.3,3.9-6.2,7.3-9.6,11.4
	c-2.3-4.2-4-7.5-6.3-11.6c-2,3.8-3.7,7.1-5.7,10.8c-2.8-3.9-5.4-7.3-8.2-11.2C76.3,14.4,74,19,71,25c-2.6-4.5-4.4-7.7-6.6-11.5
	c-2.2,4.5-4.1,8.4-6.4,13.1c-3-4.2-5.3-7.6-8.3-11.9C47.6,20.9,45.8,26,43.9,31.8z"/>
<path class="st0" d="M43.9,31.8c2-5.7,3.8-10.9,5.9-17c3,4.3,5.4,7.7,8.3,11.9c2.3-4.7,4.2-8.6,6.4-13.1c2.2,3.8,4,7,6.6,11.5
	c3-6,5.3-10.7,7.8-15.9c2.8,3.9,5.4,7.3,8.2,11.2c2-3.7,3.7-7,5.7-10.8c2.2,4.2,4,7.4,6.3,11.6c3.5-4.1,6.3-7.4,9.6-11.4
	c1.6,3.9,3.1,7.2,4.8,11.4c3.3-4.7,6.1-8.6,9.4-13.2c2,4.3,3.5,7.6,5.5,11.8c3.6-5.3,6.6-9.7,10.3-15c1.9,5,3.3,8.8,5.1,13.6
	c3.4-4,6.2-7.3,9.7-11.4c1.3,4.5,2.1,7.6,3.1,10.5c1,2.9,2.8,3.7,5.1,1.1c2.1-2.4,4.1-4.9,6.1-7.3c0.5,0.3,1,0.6,1.4,0.9
	c0,3.3,0,6.5,0,10.4c4.9-1.8,9.2-3.4,13.6-5c0.4,0.4,0.9,0.8,1.3,1.2c-1.7,3.1-3.4,6.3-5.9,10.8c2,4.8,8.8-0.2,12.8,3.2
	c-2,2.1-4,4.3-6.7,7.1c4.9,2.3,9.3,4.3,14.6,6.7c-3.9,2.6-7.1,4.7-11.1,7.3c4.9,3.4,9.2,6.3,14.2,9.7c-3.8,2.1-6.4,3.5-9.6,5.3
	c4.9,2.9,9.2,5.4,14.5,8.6c-4.3,3.3-7.4,5.8-10.9,8.5c2.5,3.2,5.2,6.9,8.3,10.9c-4.3,0.7-7.8,1.3-12.1,2c2.4,5.1,4.6,9.7,7.2,15.2
	c-5.3-1.2-9.6-2.2-14.7-3.4c0.8,6.1,1.5,11.4,2.4,18.1c-4.2-2.4-7.1-4.1-10-5.9c-3.3-2-5.7-2.1-7.4,2.1c-1.1,2.7-3.1,5-5.1,8
	c-2.6-3.6-4.8-6.7-7.4-10.2c-3.6,3.9-7.1,7.6-10.8,11.6c-2.5-3.7-4.5-6.8-6.9-10.4c-3.7,4.3-7,7.9-10.7,12.2
	c-2.9-5.2-5.1-9-7.6-13.5c-4.4,4.7-8.3,8.8-12.6,13.4c-2.8-4.9-5.1-9-7.9-14.1c-2.9,4.7-5.2,8.4-7.9,12.6c-2.3-4.4-4.2-8.1-6.6-12.6
	c-4.7,5.6-8.7,10.4-13.3,15.9c-3.8-6-6.9-11-10.7-17.1c-4.1,3.5-7.9,6.9-12.3,10.6c-1.7-4.6-3.1-8.6-4.6-12.7
	c-5.4,2.7-10.5,5.2-15.6,7.7c-0.4-0.4-0.9-0.7-1.3-1.1c1-3.7,2-7.3,3.2-11.4c-4.3-0.5-8.8-1-14.7-1.7c2-3.1,3.4-5.5,5-7.7
	c3.5-4.9,3.3-5.5-2.2-7.6c-3.1-1.1-6.1-2.4-9.9-3.9c4.9-3,9-5.6,13.6-8.5C18.1,81,13.7,78,8.6,74.5c5-2.3,9-4.2,13.8-6.4
	c-5.5-5-10.3-9.5-16.2-14.9c4.3-1.1,7.3-1.8,10.2-2.6c6.3-1.7,6.6-2.9,2.6-7.9c-2.2-2.8-4-5.8-6-8.7c0.3-0.4,0.7-0.9,1-1.3
	c4.7,1,9.4,1.9,14.6,3c0-4.6,0-9.8,0-16.7C34.3,23.7,38.7,27.4,43.9,31.8z M141.7,103.7c0.9,0.4,1.9,0.9,2.8,1.3
	c-0.7-8.5,2.4-12.4,10.5-12.7c8.1-0.3,11.5,4.5,13.7,11.4c0.6-0.4,1.1-0.7,1.7-1.1c-5.2-17.3-10.4-34.7-15.6-52
	C147.3,67.9,144.6,85.9,141.7,103.7z M74.4,103.8c0.4,0.4,0.9,0.7,1.3,1.1c0.7-7.5,4.1-10.4,11.5-10.4c7.4-0.1,10.9,3,12.9,9.9
	c0.6-2.4,0.7-4.3,0.3-6.1c-0.8-3.4-1.9-6.7-2.8-10.1c-2.8-10.8-5.4-21.6-8.3-32.3c-0.5-2-2.1-3.7-3.2-5.5c-0.5,0.2-1,0.3-1.5,0.5
	C81.3,68.4,77.9,86.1,74.4,103.8z M133,52.1c-0.5-0.1-1-0.2-1.4-0.3c-4.9,12.5-6.8,25.8-9.1,39.6c-3.1-7.5-5.8-14-8.4-20.6
	c-2.6-6.5-5.2-13-7.9-19.6c-0.4,0.2-0.9,0.3-1.3,0.5c-0.3,5.1,1.1,9.9,3.4,14.5c5.7,11,10.4,22.3,12.5,34.6c0.1,0.8,0.7,1.5,1.8,3.7
	C126.2,86,129.6,69.1,133,52.1z M44,45.6c-0.6,0-1.2-0.1-1.8-0.1c-1.7,6.7-2.8,13.3-1.4,20.3c1.3,6.9,2,14,2.8,21
	c0.5,4.5,0.7,8.9,1,13.4c0.1,2.4,1,3.5,3.7,3.4c5.9-0.2,11.9-0.1,17.7-0.1c1.4-3.6,0.7-5.2-2.6-5c-3.6,0.2-7.3,0.3-10.9,0.7
	c-4.2,0.5-5.4-1.4-5.7-5.3c-0.8-10.9-2.2-21.7-3.1-32.5c-0.3-3.6,0.3-7.3,0.4-10.9C44.1,49,44,47.3,44,45.6z"/>
<path d="M141.7,103.7c2.9-17.9,5.6-35.8,13.2-53c5.2,17.3,10.4,34.7,15.6,52c-0.6,0.4-1.1,0.7-1.7,1.1c-2.3-6.9-5.6-11.6-13.7-11.4
	c-8.2,0.3-11.3,4.2-10.5,12.7C143.6,104.6,142.7,104.2,141.7,103.7z M163.4,88.9c-3-9.7-5.9-19-8.8-28.4c-0.5,0-1-0.1-1.5-0.1
	c-2,9.4-4,18.7-6.1,28.5C152.5,88.9,157.5,88.9,163.4,88.9z"/>
<path d="M74.4,103.8c3.4-17.7,6.9-35.4,10.3-53.1c0.5-0.2,1-0.3,1.5-0.5c1.1,1.8,2.6,3.5,3.2,5.5c2.9,10.7,5.5,21.6,8.3,32.3
	c0.9,3.4,2,6.7,2.8,10.1c0.4,1.8,0.3,3.7-0.3,6.1c-2-6.8-5.5-9.9-12.9-9.9c-7.3,0.1-10.7,3-11.5,10.4
	C75.3,104.5,74.9,104.2,74.4,103.8z M95.1,90.4c-2.2-11.5-3.4-22.4-9.6-32.2c-1.7,10.7-3.5,21.4-5.3,32.2
	C85.1,90.4,89.7,90.4,95.1,90.4z"/>
<path d="M133,52.1c-3.4,17-6.7,33.9-10.4,52.3c-1.1-2.1-1.7-2.9-1.8-3.7c-2.1-12.3-6.9-23.6-12.5-34.6c-2.4-4.6-3.8-9.4-3.4-14.5
	c0.4-0.2,0.9-0.3,1.3-0.5c2.6,6.5,5.2,13.1,7.9,19.6c2.7,6.6,5.4,13.1,8.4,20.6c2.3-13.8,4.2-27.1,9.1-39.6
	C132,51.9,132.5,52,133,52.1z"/>
<path d="M44,45.6c0,1.7,0.1,3.4,0,5c-0.1,3.6-0.7,7.3-0.4,10.9c0.9,10.9,2.3,21.7,3.1,32.5c0.3,3.9,1.5,5.8,5.7,5.3
	c3.6-0.4,7.3-0.5,10.9-0.7c3.4-0.2,4.1,1.4,2.6,5c-5.8,0-11.8-0.1-17.7,0.1c-2.7,0.1-3.6-1-3.7-3.4c-0.3-4.5-0.5-9-1-13.4
	c-0.8-7-1.5-14.1-2.8-21c-1.3-7.1-0.3-13.7,1.4-20.3C42.8,45.6,43.4,45.6,44,45.6z"/>
<path class="st0" d="M163.4,88.9c-5.8,0-10.8,0-16.4,0c2.1-9.8,4.1-19.2,6.1-28.5c0.5,0,1,0.1,1.5,0.1
	C157.5,69.8,160.4,79.1,163.4,88.9z"/>
<path class="st0" d="M95.1,90.4c-5.4,0-10,0-14.9,0c1.8-10.8,3.5-21.5,5.3-32.2C91.7,68,92.9,78.9,95.1,90.4z"/>
</svg>
