<?xml version="1.0" encoding="utf-8"?>
<!-- Generator: Adobe Illustrator 22.1.0, SVG Export Plug-In . SVG Version: 6.00 Build 0)  -->
<svg version="1.1" id="Layer_1" xmlns="http://www.w3.org/2000/svg" xmlns:xlink="http://www.w3.org/1999/xlink" x="0px" y="0px"
	 viewBox="0 0 210 143" style="enable-background:new 0 0 210 143;" xml:space="preserve">
<style type="text/css">
	.st0{fill:#F7CB5F;}
</style>
<path d="M60.5,22C65.1,15.4,69,9.8,73.2,3.8c4.8,5.3,9.6,10.6,14.8,16.4C92.7,13.7,97,7.9,101.4,2c0.5,0.1,1.1,0.2,1.6,0.3
	c0.8,5.5,1.5,11,2.4,17.7c6.2-7.1,11.5-13.2,16.9-19.3c0.4,0.2,0.9,0.5,1.3,0.7c0.6,6.1,1.3,12.2,1.9,18.3c0.5,0.2,1.1,0.5,1.6,0.7
	c4.8-5.1,9.7-10.1,14.5-15.2c0.4,0.1,0.9,0.2,1.3,0.3c0,5.1,0,10.3,0,15.4c0.4,0.1,0.9,0.2,1.3,0.4c5.9-5.4,11.7-10.9,18.2-16.9
	c0.9,7.3,1.6,14,2.5,21.6c7.3-4.2,13.3-7.6,19.6-11.2c3.2,7.9-1.6,14.3-2.4,21.8c6.5,1.7,12.8,3.4,20.1,5.3
	c-5,3.7-9.4,6.9-14.4,10.6c6,4.2,11.2,7.8,17.6,12.1c-5.6,2.4-9.9,4.3-14.8,6.4c4.7,4.3,9,8.3,14.1,13c-5,3-9.4,5.7-14,8.5
	c4.4,5.7,8.5,11,12.7,16.3c-0.3,0.4-0.6,0.7-0.9,1.1c-5.1-0.8-10.2-1.6-15.9-2.5c0.5,5.5,0.9,10.1,1.4,15.6
	c-5.7-2.4-10.5-4.5-15.9-6.8c-1.7,7.7-3.3,14.6-5.2,22.9c-5-4.3-8.6-7.6-12.6-11c-3.4,4.2-6.6,8.2-10.3,12.8c-3.3-5.4-6-9.9-9-14.8
	c-6.6,5.3-12.6,10.3-19.9,16.2c-0.5-5.8-0.9-10.1-1.3-14.9c-7.9,4.8-15.1,9.2-23,14c-1.3-5.7-2.3-10.3-3.6-15.9
	c-5.2,4.5-9.4,8.2-14.1,12.2c-1.9-4.2-3.4-7.6-5.2-11.8c-4.2,3.8-7.9,6.9-11.3,10.3c-2.7,2.6-4.3,3.2-5.8-1.2
	c-3.7-10.8-2.9-8.2-11.6-5.6c-3.8,1.1-7.5,2.6-12.3,4.2c1-6.4,1.8-11.7,2.7-17.4c-6.2-0.4-11.7-0.8-18.9-1.3c2.9-3.8,4.8-6.6,7-9.1
	c3-3.4,2.9-5.7-1.1-8.4C12.7,95.2,9.7,92.2,6,89c4.1-2.8,7.3-5.1,11-7.7C12.5,78,8.5,75,4,71.7c4-2.6,7.2-4.6,10.4-6.7
	c2.9-1.9,3-3.9,0.5-6.4C11.3,55,8,51.1,3.8,46.6c4.9-1.4,8.7-2.4,13.2-3.7c-2.4-4.5-4.4-8.3-7.3-13.7c7.8,1,14.2,1.8,21,2.6
	c0.8-4.7,1.7-9.8,2.7-16c4.2,4.7,7.5,8.3,11.6,12.9c2.3-6.8,4.3-12.4,6.8-19.6C55,13.8,57.5,17.6,60.5,22z M15.4,112.4
	c6.3,0,11.5,0,17.5,0c-0.7,5.7-1.2,10.8-1.9,16.6c5.1-2.1,9.5-3.5,13.6-5.6c3.3-1.6,5.1-1.7,6.1,2.4c0.7,2.8,2.1,5.3,3.3,8.2
	c6.2-3.9,8.9-11.2,15.8-13c1.6,4.1,3,7.7,4.7,12.1c4.5-4.2,8.4-7.9,13.5-12.7c1.9,6.1,3.4,10.9,5.2,16.6c7.5-4.9,14.8-9.6,22.9-14.9
	c0.6,5.2,1.1,9.2,1.8,14.9c5-5.1,9.6-8.9,13.1-13.5c2.5-3.3,3.8-3.2,5.7,0c2.4,3.9,4.8,7.7,7.6,12.3c3.3-4.6,6.1-8.4,9.1-12.6
	c3.9,3.3,7.5,6.4,12,10.2c1.1-6.1,2.2-11.3,2.8-16.5c0.4-3.4,1.9-4.4,5-3.3c3.5,1.3,7,2.7,11.5,4.4c-1-5.9-1.9-10.9-2.7-15.3
	c4.8,1.1,9.2,2,13.6,3c0.2-0.5,0.5-0.9,0.7-1.4c-2.7-3.1-5.1-6.4-8-9.3c-2.9-2.9-2.3-4.8,1.1-6.4c3.1-1.5,6.1-3.1,10.2-5.1
	c-5.5-4.7-10.4-8.7-15.7-13.3c5.1-2,9.5-3.8,15.3-6.1c-4.9-2.9-8.7-5.2-12.5-7.4c-3.8-2.2-4.3-4.3-1.1-7.2c2.4-2.2,5.1-3.9,8.6-6.5
	c-6.1-1.4-11.2-2.5-16.7-3.7c1.2-3.6,2.3-6.7,3.1-9.9c0.8-3,1.1-6.2,1.9-10.6c-7.4,4.3-13.2,7.6-20,11.6c-1.2-7-2.3-12.8-3.5-19.5
	c-5.8,5.6-11.2,10.7-17.7,17c-1-6.3-1.7-11.2-2.6-17.1c-4.9,5.2-9.3,9.9-13.7,14.6c-0.5-0.1-1-0.3-1.5-0.4c-0.9-5.9-1.9-11.9-3-18.9
	c-5.7,6.8-10.9,13-16.2,19.1c-0.6-0.2-1.1-0.4-1.7-0.7c-0.9-4.9-1.9-9.9-3-15.8c-4,5.8-7.4,10.7-11.4,16.5
	c-5.1-5.4-9.9-10.4-15.1-15.9c-3.1,4.6-6,8.7-8.6,12.9c-2.4,3.9-4.2,4.2-7,0.5c-1.5-2-3-4.1-5.3-7.2C51,20.3,50,23.7,49,27.2
	c-1.4,5-3.4,5.5-7.2,1.9c-2.2-2.1-4.2-4.4-7.1-7.5c-0.6,6.4-1.1,11.6-1.6,16.6c-5.9-2.1-11.3-4-17.4-6.1c2.3,5.5,4.1,9.6,5.7,13.4
	c-4.7,0.9-8,1.6-12.7,2.5c4.2,4.6,7.3,8.2,10.6,11.6c2.3,2.4,2.2,4.3-0.5,6.1c-3,2.1-5.9,4.1-9.5,6.6c4.4,3,8.5,5.7,13.2,8.9
	c-4,3-7.4,5.6-11.4,8.6c3.1,2.5,5.8,4.9,8.8,7c3.2,2.3,3.9,4.8,1.4,8C19.7,107,17.8,109.3,15.4,112.4z"/>
<path class="st0" d="M15.4,112.4c2.5-3.1,4.3-5.4,6.1-7.7c2.5-3.2,1.8-5.7-1.4-8c-2.9-2.1-5.6-4.5-8.8-7c4-3,7.4-5.6,11.4-8.6
	C18,77.9,14,75.2,9.5,72.2c3.5-2.5,6.5-4.5,9.5-6.6c2.6-1.8,2.8-3.8,0.5-6.1c-3.3-3.4-6.5-7-10.6-11.6c4.7-0.9,8-1.6,12.7-2.5
	c-1.6-3.7-3.4-7.9-5.7-13.4c6.1,2.1,11.5,4,17.4,6.1c0.5-5.1,1-10.2,1.6-16.6c2.9,3.1,4.9,5.4,7.1,7.5c3.8,3.6,5.8,3,7.2-1.9
	c1-3.5,2-6.9,3.3-11.6c2.3,3.1,3.8,5.2,5.3,7.2c2.8,3.7,4.6,3.5,7-0.5c2.6-4.2,5.5-8.2,8.6-12.9c5.2,5.5,9.9,10.5,15.1,15.9
	c4-5.8,7.4-10.7,11.4-16.5c1.1,5.9,2.1,10.9,3,15.8c0.6,0.2,1.1,0.4,1.7,0.7c5.2-6.2,10.4-12.3,16.2-19.1c1.1,7.1,2.1,13,3,18.9
	c0.5,0.1,1,0.3,1.5,0.4c4.4-4.7,8.8-9.4,13.7-14.6c0.9,5.9,1.7,10.8,2.6,17.1c6.6-6.3,12-11.5,17.7-17c1.2,6.7,2.2,12.4,3.5,19.5
	c6.8-4,12.6-7.3,20-11.6c-0.8,4.5-1.2,7.6-1.9,10.6c-0.8,3.2-2,6.3-3.1,9.9c5.5,1.2,10.6,2.3,16.7,3.7c-3.4,2.6-6.1,4.4-8.6,6.5
	c-3.3,2.9-2.8,5.1,1.1,7.2c3.8,2.2,7.6,4.5,12.5,7.4c-5.8,2.3-10.1,4-15.3,6.1c5.4,4.5,10.2,8.6,15.7,13.3c-4,2-7.1,3.6-10.2,5.1
	c-3.4,1.6-4,3.5-1.1,6.4c2.9,2.9,5.4,6.2,8,9.3c-0.2,0.5-0.5,0.9-0.7,1.4c-4.4-1-8.8-1.9-13.6-3c0.8,4.4,1.7,9.4,2.7,15.3
	c-4.5-1.7-8-3.1-11.5-4.4c-3.1-1.1-4.6-0.1-5,3.3c-0.6,5.2-1.7,10.3-2.8,16.5c-4.5-3.8-8.1-6.9-12-10.2c-3,4.2-5.8,8-9.1,12.6
	c-2.8-4.6-5.2-8.4-7.6-12.3c-1.9-3.2-3.2-3.3-5.7,0c-3.6,4.6-8.1,8.5-13.1,13.5c-0.7-5.8-1.2-9.8-1.8-14.9
	c-8.2,5.3-15.4,10-22.9,14.9c-1.8-5.7-3.3-10.6-5.2-16.6c-5.1,4.8-9,8.5-13.5,12.7c-1.7-4.4-3.1-8-4.7-12.1c-7,1.8-9.6,9.1-15.8,13
	c-1.2-2.8-2.6-5.4-3.3-8.2c-1-4-2.8-4-6.1-2.4c-4.1,2.1-8.5,3.6-13.6,5.6c0.7-5.8,1.3-10.9,1.9-16.6
	C26.8,112.4,21.7,112.4,15.4,112.4z M156.6,48.8c-0.7,0-1.4-0.1-2.1-0.1c-4.6,18.1-9.2,36.2-13.8,54.3c4.5-2.5,2.3-9.9,9.2-9.9
	c4.7,0,9.4,0,14.5,0c0.2,2.7,0.2,4.5,0.5,6.3c0.2,1.5,0.8,3.1,1.2,4.6c0.5-0.1,1-0.3,1.5-0.4C168.1,84.4,163.7,66.4,156.6,48.8z
	 M88.7,47.8c-4,18.4-7.7,35.8-11.5,53.2c4.2-3.6,2.2-12.5,12.2-10.5c7.7,1.6,8.8,7.1,10.1,13.7C102.7,98.5,94.2,54.1,88.7,47.8z
	 M124.8,90.2c-0.6-0.1-1.2-0.2-1.8-0.3c-5.1-13.4-10.3-26.8-15.4-40.2c-0.4,0.2-0.9,0.3-1.3,0.5c1.9,18.9,14,34.4,17.2,53
	c1.6-1.9,2.5-3.7,3.1-5.6c2.7-8.7,5.6-17.3,7.8-26.1c1.5-5.9,2.1-12.1,2.9-18.2c0.2-1.3-0.8-2.8-1-3.5
	C132.5,63.3,128.7,76.7,124.8,90.2z M43.9,48.2c-0.3-0.2-0.6-0.3-0.9-0.5c-0.6,3.2-1.7,6.5-1.5,9.7c0.6,13.5,1.8,26.9,2.4,40.4
	c0.2,3.6,1.6,4.6,5,4.2c6.7-0.7,13.5-1,20.2-1.7c1-0.1,1.8-1.3,2.8-2c-0.9-0.6-1.9-1.9-2.8-1.8c-5.2,0.2-10.5,0.6-15.7,0.9
	c-2.4,0.1-5.7,1.9-6-2.6C46,79.2,45,63.7,43.9,48.2z"/>
<path d="M156.6,48.8c7.1,17.5,11.5,35.6,11,54.6c-0.5,0.1-1,0.3-1.5,0.4c-0.4-1.5-0.9-3-1.2-4.6c-0.3-1.8-0.3-3.6-0.5-6.3
	c-5.1,0-9.8,0-14.5,0c-6.8,0-4.7,7.5-9.2,9.9c4.6-18.1,9.2-36.2,13.8-54.3C155.2,48.8,155.9,48.8,156.6,48.8z M148,88.5
	c5.2,0.2,10.2,0.5,15.5,0.7c1.5-11.8-4.6-21.8-7-32.7c-0.5,0-1,0-1.5,0C152.7,67.2,150.4,77.9,148,88.5z"/>
<path d="M88.7,47.8c5.5,6.3,14,50.7,10.8,56.5c-1.3-6.7-2.4-12.1-10.1-13.7c-10-2.1-8,6.9-12.2,10.5C81,83.7,84.7,66.2,88.7,47.8z
	 M89.9,59.6c-0.5,0-1-0.1-1.5-0.1c-1.7,8.8-3.3,17.6-5,26.3c4.6,0.8,8.4,1.5,12.9,2.2C94.1,77.9,92,68.7,89.9,59.6z"/>
<path d="M124.8,90.2c3.8-13.5,7.6-27,11.4-40.4c0.2,0.7,1.1,2.2,1,3.5c-0.8,6.1-1.4,12.2-2.9,18.2c-2.2,8.8-5.1,17.4-7.8,26.1
	c-0.6,1.9-1.5,3.6-3.1,5.6c-3.2-18.6-15.3-34.2-17.2-53c0.4-0.2,0.9-0.3,1.3-0.5c5.1,13.4,10.3,26.8,15.4,40.2
	C123.7,90,124.2,90.1,124.8,90.2z"/>
<path d="M43.9,48.2C45,63.7,46,79.2,47.2,94.8c0.3,4.5,3.6,2.7,6,2.6c5.2-0.3,10.5-0.8,15.7-0.9c0.9,0,1.9,1.2,2.8,1.8
	c-0.9,0.7-1.8,1.9-2.8,2c-6.7,0.7-13.4,1-20.2,1.7c-3.3,0.3-4.8-0.6-5-4.2c-0.7-13.5-1.8-26.9-2.4-40.4c-0.1-3.2,1-6.5,1.5-9.7
	C43.3,47.8,43.6,48,43.9,48.2z"/>
<path class="st0" d="M148,88.5c2.3-10.6,4.7-21.3,7-32c0.5,0,1,0,1.5,0c2.4,10.8,8.5,20.8,7,32.7C158.2,88.9,153.2,88.7,148,88.5z"
	/>
<path class="st0" d="M89.9,59.6c2.1,9.2,4.1,18.3,6.4,28.5c-4.5-0.8-8.3-1.4-12.9-2.2c1.7-8.7,3.3-17.5,5-26.3
	C88.9,59.5,89.4,59.5,89.9,59.6z"/>
</svg>
