<?xml version="1.0" encoding="utf-8"?>
<!-- Generator: Adobe Illustrator 22.1.0, SVG Export Plug-In . SVG Version: 6.00 Build 0)  -->
<svg version="1.1" id="Layer_1" xmlns="http://www.w3.org/2000/svg" xmlns:xlink="http://www.w3.org/1999/xlink" x="0px" y="0px"
	 viewBox="0 0 307 154" style="enable-background:new 0 0 307 154;" xml:space="preserve">
<style type="text/css">
	.st0{fill:#F7CB5F;}
</style>
<g>
	<path d="M61,19.8c2.5-4.6,4.4-8,6.6-12c2.8,4.3,5.4,8,8.6,12.9c2.8-5.2,4.9-9.2,7.5-14c2.2,4.4,4.2,8.2,6.6,12.9
		c2.9-5.4,5.4-10.1,8.3-15.6c2.7,4.2,4.9,7.7,7.8,12.2c2-4.5,3.6-8.2,5.7-12.9c2.8,4.5,5.1,8.1,7.8,12.4c2.9-4.9,5.5-9.3,8.4-14.2
		c2.7,5.2,5.2,9.8,7.6,14.4c0.9-0.4,1.8-0.8,2.7-1.2c2.4-3.3,4.9-6.6,7.8-10.7c2.4,5.3,4.6,10,7.1,15.4c4.7-5.9,8.9-11.2,14-17.6
		c0.9,5.5,1.5,9.6,2.3,14.8c5.9-4.9,11.1-9.2,16.5-13.7c1.9,4.6,3.6,8.6,5.7,13.6c5.8-5.5,10.8-10.2,16.6-15.7
		c1.3,6,2.4,11.1,3.8,17.4c5.3-4.4,9.6-8.1,14.4-12.1c1.8,3.9,3.6,7.4,5.6,11.7c4.7-4.4,8.9-8.4,14.1-13.3c1.5,4.8,2.7,8.7,4.2,13.5
		c5.7-3.8,11.1-7.4,17.5-11.7c-0.5,6.3-1,11.3-1.4,16.6c6.5-1.8,12.3-3.4,19.4-5.3c-1.2,3.7-1.9,6.2-2.8,8.6c-1.9,5.3-1.7,5.6,3.8,7
		c2.9,0.7,5.8,1.4,8.7,2.1c0.4,0.1,0.7,0.5,1.4,1.1c-3.4,3-6.7,5.8-10.4,9c5,2.7,9.1,4.9,14.2,7.6c-4.5,2.9-8,5.1-12.2,7.8
		c5.1,3.8,9.7,7.2,15.3,11.4c-5.5,1.4-10,2.5-16,4c6.3,5.1,11.6,9.4,17.6,14.2c-5.9,1.4-11.2,2.6-17.2,4c3.9,4.8,7,8.6,10.8,13.2
		c-5.5,0.2-9.6,0.4-14.6,0.6c3.7,6.8,7.1,12.9,10.4,19c-0.3,0.4-0.5,0.8-0.8,1.3c-6.6-2.3-13.2-4.7-20.8-7.3
		c0.4,5.9,0.7,11.1,1,16.3c-0.3,0.4-0.7,0.8-1,1.1c-4.3-3.2-8.6-6.5-13.1-9.9c-3.2,5.5-6.3,11-10.1,17.6c-2.2-5.5-3.9-9.8-6.1-15.3
		c-3.9,6.9-7.2,12.8-11.1,19.8c-2.8-5.6-5-10-7.8-15.3c-2.2,3.3-3.8,6-5.7,8.4c-2,2.5-4.4,4.8-7.2,7.8c-2.7-5.7-5.1-10.8-8.1-17
		c-4.1,4.8-7.5,8.8-11.7,13.6c-2.1-5.3-4-9.9-6.1-15.3c-5.3,6-10,11.3-15.4,17.3c-2.6-5.5-4.9-10.2-7.6-15.8
		c-4.4,7.3-6.5,15-14.2,18.2c-3.2-5.1-6.3-9.9-9.9-15.5c-3.2,5.1-5.5,8.8-8.2,13.2c-2.4-5.7-4.3-10.5-6.7-16.4
		c-4,5.2-7.3,9.4-11,14.1c-2.3-4.5-4-8.1-6.2-12.4c-4.1,5.5-7.5,10.2-11.6,15.8c-2.8-6.8-5.1-12.3-7.8-18.8c-4.8,6-8.9,11-13.4,16.6
		c-2.5-5.4-4.7-10.2-7.3-15.7c-4,5-7.2,9.1-11.1,14c-1.4-4-2.6-7.3-3.9-11.2c-3.6,4.6-6.7,8.6-9.7,12.6c-0.5-0.1-1.1-0.2-1.6-0.3
		c-1.2-5-2.4-10.1-3.8-15.9c-5.5,2.7-10.7,5.3-15.9,7.9c-0.4-0.2-0.7-0.5-1.1-0.7c0.9-2.3,1.7-4.7,2.7-7c0.9-2.3,2-4.5,3.4-7.6
		c-5.9-0.4-11-0.8-17.1-1.2c3.3-3.7,6-6.7,9.2-10.2c-6.2-1.8-11.7-3.3-18.5-5.2c4.8-4.4,8.7-7.9,13-11.9c-4.6-2.7-8.9-5.1-13.1-7.5
		c0-0.5,0-0.9,0-1.4C5,87,10.2,85.5,16,83.9c-4.8-4.4-9-8.1-13.9-12.5c5-1.9,8.9-3.4,13.6-5.2c-4.3-4-8.1-7.5-12.8-11.9
		c5.4-1.3,9.7-2.3,14.8-3.6c-4.4-5.3-8.3-10.1-12.3-14.9c0.2-0.5,0.4-1,0.6-1.6c5,0.1,10,0.2,15.7,0.3c-1.9-4.6-3.6-8.7-5.5-13.5
		c5.4,1.7,10.1,3.2,15.3,4.8c0-4.8-0.1-8.9-0.1-14.6c4.8,4.3,8.5,7.7,13,11.7c2.7-6.6,5.1-12.6,8.1-19.9C55.5,9.1,58,13.8,61,19.8z
		 M52.5,131.1c1.7,3.8,3.1,7,5,11.1c3.5-4.7,6.5-8.7,10-13.4c2.8,5.5,5.2,10.1,8.1,15.9c4.1-5.4,7.9-10.4,12.4-16.5
		c3,6.3,5.6,11.8,8.4,17.9c3.5-5.6,6.6-10.5,10.4-16.5c2.9,5.2,5,9,7.4,13.4c3.4-5,6.4-9.2,10-14.5c2.8,5.9,5,10.6,7.6,16.1
		c2.1-3.8,4-7.3,6.2-11.1c5.9,3.5,8.4,9.3,11.5,15.2c7.8-4,9.2-12.3,13.8-19.6c3,5.9,5.5,10.7,8.3,16.2c5-5.8,9.6-11.2,14.8-17.4
		c2.5,5.4,4.6,9.9,6.8,14.9c3.7-4.6,6.9-8.5,10.7-13.3c3.3,6.5,6,11.8,9.1,18c4.1-6.1,7.5-11.3,11.6-17.4c2.7,5.1,5.2,9.7,8.3,15.3
		c3.7-7.1,6.9-13.2,10.6-20.4c2.5,5.3,4.4,9.4,6.8,14.5c3.4-5.9,6.3-11,9.2-16.1c3.6,3.2,6.9,6.1,11.3,9.9
		c-0.1-6.1-0.2-10.6-0.2-15.6c6.9,2.8,13,5.2,19,7.6c0.3-0.3,0.5-0.7,0.8-1c-3.3-6.1-6.7-12.2-10.3-18.9c5.1,0,8.7,0.1,12.4,0.1
		c0.2-0.4,0.4-0.8,0.6-1.1c-3.3-3.8-6.7-7.5-10.9-12.2c6.4-0.8,11.5-1.4,16.7-2.1c0-0.4,0.1-0.8,0.1-1.2
		c-5.1-4.1-10.2-8.2-16.4-13.2c6-1.5,10.4-2.7,15.6-4c-5-3.8-9.1-6.9-13.3-10c-0.1-0.6-0.1-1.3-0.2-1.9c3.6-1.8,7.1-3.7,10.7-5.5
		c-0.1-0.5-0.2-1-0.3-1.5c-4.3-1.9-8.7-3.8-13.9-6c3.6-3.4,6.7-6.2,10.4-9.8c-3.8-0.7-6.6-1.2-9.3-1.6c-3.5-0.6-5.1-2-3.2-5.7
		c1.1-2.1,1.5-4.6,2.6-8.2c-6.5,2.2-11.7,3.9-17.4,5.8c0.4-4.9,0.7-9.6,1.2-15.7c-6.3,4.3-11.5,7.9-16.9,11.6
		c-1.5-4.6-2.7-8.4-4.2-13.3c-4.7,4.7-8.7,8.7-13.3,13.2c-2.2-4.2-4.1-7.9-6.2-12c-4.8,4-9.2,7.7-14.3,12
		c-1.5-6.2-2.7-11.4-4.1-17.5c-5.4,5.4-10.1,10.1-15.4,15.5c-2.3-4.8-4.3-8.9-6.6-13.6c-5.3,4.6-10.3,8.9-16,13.9
		c-0.9-4.6-1.7-8.6-2.8-14c-4.6,6.1-8.5,11.3-12.8,17c-2.6-5.1-4.8-9.5-7.6-15.2c-2.5,4.6-4.4,8-6.6,11.9
		c-3.2-4.4-6.4-8.7-10.2-13.9c-2.8,4.9-5.2,9.2-8,14.1c-2.7-4.2-5-7.8-8.1-12.6c-1.8,4.9-3.1,8.5-4.4,12c-0.7,0.3-1.3,0.7-2,1
		c-1.9-4-3.7-8-5.6-12c-0.7,0.2-1.3,0.4-2,0.6c-2.2,4.6-4.5,9.2-7.2,14.9c-2.6-4.6-4.7-8.1-7.1-12.4c-2.5,4.4-4.5,8-7,12.4
		c-3.3-4.5-6-8.2-9.1-12.4c-2.1,4.2-3.9,7.7-6,11.8c-3.1-5.4-5.7-10-9-15.8c-1.9,5.1-3.4,9-4.8,12.9c-2,5.5-2.8,5.6-6.9,1.8
		c-1.8-1.7-3.7-3.4-5.6-5c-0.3,0.2-0.7,0.5-1,0.7c0.4,3.2,0.8,6.3,1.3,10.2c-4.9-1.2-9.3-2.3-14.4-3.5c2.1,4.8,3.7,8.7,5.3,12.4
		c-5.9-0.7-10.8-1.4-15.6-2c-0.3,0.6-0.6,1.3-0.9,1.9c4.1,4.3,8.2,8.6,12.9,13.5c-5.2,1.5-9.6,2.7-15.2,4.3c4.8,4,8.6,7.2,13.2,10.9
		c-4.9,2.1-9,3.7-13.9,5.8c5.1,4.3,9.4,8,14.4,12.2c-6,1.7-11.1,3.1-16.2,4.4c0,0.4,0.1,0.9,0.1,1.3c4.1,2,8.1,4.1,12.3,6.1
		c-4.4,3.8-8.3,7.2-12.2,10.5c0.2,0.5,0.4,1.1,0.5,1.6c5.7,1,11.4,2,17.9,3.2c-3.3,3.8-5.8,6.7-9.3,10.7c6,0.3,10.6,0.5,15.7,0.7
		c-1.6,4.2-2.9,7.7-4.5,12.2c4.8-2.7,8.5-4.8,12.8-7.2c1.3,6,2.4,10.9,3.4,15.7c0.5,0.1,1,0.2,1.5,0.2
		C46.4,140,49.2,135.9,52.5,131.1z"/>
	<path class="st0" d="M52.5,131.1c-3.3,4.8-6.1,8.9-9,13.1c-0.5-0.1-1-0.2-1.5-0.2c-1.1-4.9-2.1-9.8-3.4-15.7
		c-4.3,2.4-8,4.5-12.8,7.2c1.7-4.5,3-8,4.5-12.2c-5.1-0.2-9.7-0.4-15.7-0.7c3.5-4,6-6.9,9.3-10.7c-6.4-1.1-12.2-2.1-17.9-3.2
		c-0.2-0.5-0.4-1.1-0.5-1.6c3.9-3.4,7.8-6.7,12.2-10.5c-4.1-2.1-8.2-4.1-12.3-6.1c0-0.4-0.1-0.9-0.1-1.3c5.1-1.4,10.1-2.8,16.2-4.4
		c-4.9-4.2-9.3-7.8-14.4-12.2c5-2.1,9-3.8,13.9-5.8c-4.5-3.8-8.4-7-13.2-10.9c5.7-1.6,10-2.9,15.2-4.3c-4.7-4.9-8.8-9.2-12.9-13.5
		c0.3-0.6,0.6-1.3,0.9-1.9c4.9,0.6,9.8,1.2,15.6,2c-1.6-3.7-3.3-7.6-5.3-12.4c5.1,1.3,9.5,2.3,14.4,3.5c-0.5-3.8-0.9-7-1.3-10.2
		c0.3-0.2,0.7-0.5,1-0.7c1.9,1.7,3.8,3.3,5.6,5c4.1,3.9,4.9,3.7,6.9-1.8c1.4-3.9,2.9-7.7,4.8-12.9c3.3,5.8,5.9,10.4,9,15.8
		c2.1-4.1,3.9-7.6,6-11.8c3.1,4.3,5.8,7.9,9.1,12.4c2.5-4.5,4.5-8,7-12.4c2.5,4.3,4.5,7.8,7.1,12.4c2.7-5.6,5-10.3,7.2-14.9
		c0.7-0.2,1.3-0.4,2-0.6c1.9,4,3.7,8,5.6,12c0.7-0.3,1.3-0.7,2-1c1.3-3.6,2.6-7.1,4.4-12c3.1,4.8,5.4,8.4,8.1,12.6
		c2.8-4.9,5.2-9.1,8-14.1c3.8,5.1,7,9.5,10.2,13.9c2.2-3.9,4.1-7.4,6.6-11.9c2.9,5.7,5.1,10.1,7.6,15.2c4.3-5.7,8.2-10.8,12.8-17
		c1.1,5.4,1.9,9.4,2.8,14c5.7-5,10.8-9.3,16-13.9c2.3,4.7,4.3,8.8,6.6,13.6c5.3-5.3,10-10,15.4-15.5c1.5,6.2,2.7,11.3,4.1,17.5
		c5.1-4.3,9.5-7.9,14.3-12c2.1,4,4,7.8,6.2,12c4.6-4.6,8.6-8.5,13.3-13.2c1.6,4.9,2.8,8.7,4.2,13.3c5.5-3.8,10.7-7.3,16.9-11.6
		c-0.5,6-0.8,10.8-1.2,15.7c5.7-1.9,10.9-3.6,17.4-5.8c-1.1,3.6-1.5,6-2.6,8.2c-1.9,3.8-0.3,5.2,3.2,5.7c2.7,0.4,5.5,1,9.3,1.6
		c-3.8,3.5-6.8,6.4-10.4,9.8c5.2,2.3,9.6,4.1,13.9,6c0.1,0.5,0.2,1,0.3,1.5c-3.6,1.8-7.1,3.7-10.7,5.5c0.1,0.6,0.1,1.3,0.2,1.9
		c4.1,3.1,8.3,6.3,13.3,10c-5.2,1.3-9.6,2.5-15.6,4c6.2,5,11.3,9.1,16.4,13.2c0,0.4-0.1,0.8-0.1,1.2c-5.2,0.6-10.4,1.3-16.7,2.1
		c4.2,4.7,7.5,8.5,10.9,12.2c-0.2,0.4-0.4,0.8-0.6,1.1c-3.6,0-7.3,0-12.4-0.1c3.7,6.7,7,12.8,10.3,18.9c-0.3,0.3-0.5,0.7-0.8,1
		c-6-2.4-12.1-4.9-19-7.6c0.1,5,0.1,9.5,0.2,15.6c-4.4-3.8-7.7-6.8-11.3-9.9c-2.9,5.1-5.8,10.2-9.2,16.1c-2.4-5.1-4.3-9.2-6.8-14.5
		c-3.8,7.2-6.9,13.3-10.6,20.4c-3-5.6-5.5-10.3-8.3-15.3c-4.1,6.1-7.6,11.3-11.6,17.4c-3.2-6.2-5.9-11.5-9.1-18
		c-3.8,4.7-7,8.6-10.7,13.3c-2.3-5-4.3-9.5-6.8-14.9c-5.3,6.2-9.9,11.6-14.8,17.4c-2.9-5.6-5.3-10.3-8.3-16.2
		c-4.5,7.4-6,15.7-13.8,19.6c-3.1-5.9-5.6-11.7-11.5-15.2c-2.1,3.8-4,7.3-6.2,11.1c-2.6-5.5-4.8-10.2-7.6-16.1
		c-3.7,5.3-6.6,9.6-10,14.5c-2.5-4.5-4.5-8.2-7.4-13.4c-3.7,5.9-6.9,10.9-10.4,16.5c-2.9-6.1-5.5-11.5-8.4-17.9
		c-4.6,6.1-8.3,11.1-12.4,16.5c-2.9-5.7-5.3-10.4-8.1-15.9c-3.5,4.7-6.5,8.7-10,13.4C55.6,138,54.2,134.9,52.5,131.1z M192.4,103.3
		c4.2-9.4-5.6-53.6-12.1-57.9c-0.4,1.1-0.8,2-1,3c-3.6,16.2-7.3,32.4-10.8,48.6c-0.5,2.3-0.3,4.7-0.4,7.1c1.6-0.2,2.1-0.5,2.2-0.9
		c0.3-0.9,0.4-1.8,0.6-2.7c1.4-7.5,1.8-7.9,9.6-8.9c1.7-0.2,3.4-0.3,5.2-0.4c2.9,0,4.8,1,5.1,4.2C190.9,97.7,191.6,99.9,192.4,103.3
		z M258.7,46.7c0-0.6,0-1.2,0-1.7c-1.4-0.4-2.8-1.1-4.2-1.2c-4.1-0.2-8.1-0.2-12.2-0.2c-7,0-7.4,0-7.5,6.7
		c-0.3,15.7-0.3,31.4-0.1,47c0.1,5.9,2.8,8.2,8.6,7.9c5-0.3,10-0.8,14.9-1.7c1.4-0.2,2.5-1.8,3.8-2.7c-0.3-0.5-0.6-0.9-0.9-1.4
		c-5.8,0.5-11.5,1.1-17.3,1.5c-2.6,0.2-5.3,0-5.7-3.4c-0.4-3.6-0.9-7.2-0.7-10.8c0.6-8.3,0.7-8.3,9.2-9.5c2.3-0.3,4.5-0.8,3.2-4.1
		c-3.9,0.1-7.8,0.1-12.1,0.2c0-7.7,0-14.8-0.1-21.8c0-2.7,0.8-4,3.8-3.9c4.4,0.2,8.8,0,13.1-0.2C256,47.5,257.4,47,258.7,46.7z
		 M91,103.5c0.7-0.1,1.4-0.2,2-0.2c0.9-20.1-3.4-39.6-8.3-59.3c-10.4,17.3-11.7,37.2-16,56.2c1.7-1.5,2.2-3.4,3.1-5.1
		c0.9-1.7,2-3.9,3.6-4.5c3-1.2,6.4-1.4,9.6-1.9c2.6-0.4,4.2,0.5,4.5,3.3C89.9,95.8,90.5,99.6,91,103.5z M221.3,59.7
		c1.8-4.9-0.5-11.2-4.3-14.9c-5.1-4.8-10.9-3.6-12.4,3.3c-1.5,6.8-2.6,14-2.3,20.9c0.4,9.3,2,18.6,3.7,27.8c0.6,3.5,3.3,5.9,7.3,6.4
		c4.1,0.4,7.2-1.3,8.9-4.8c4-8.2,3.4-16.6,1.1-25.5c-2.4,0.6-4.5,0.9-6.3,1.7c-1,0.5-1.5,2-2.2,3.1c1.1,0.1,2.2,0.4,3.3,0.4
		c1.1,0,2.1-0.2,4.6-0.5c-0.6,5.9-0.9,11.2-1.7,16.5c-0.5,3.6-3.1,5.4-6.7,5.1c-3.8-0.3-5.2-2.9-5.6-6.4c-0.6-5-2-9.9-2.3-14.8
		c-0.4-8.7-0.3-17.5,0.1-26.2c0.1-2.1,2.4-4,3.6-6.1c2.1,1.6,4.7,2.8,6.3,4.8C218.5,53,219.5,56,221.3,59.7z M40.4,87.4
		c-0.5-0.1-1-0.2-1.6-0.2c-0.4,1.3-1.1,2.5-1,3.8C38,96.1,42,98,46,99.6c3.7,1.5,9.1-0.7,11.8-4c4.7-5.9,3.5-12,0.8-18.2
		c-3.3-7.6-7-15.1-9.9-22.8c-0.8-2.2-0.2-5.6,1.1-7.7c0.9-1.5,4-2.3,6-2.2c3.2,0.3,4.5,3,4.8,6.1c0.2,1.7,0.6,3.4,1,5.9
		c3.2-5.7,1.8-12.1-2.4-14.5c-4.3-2.5-10.3-0.7-13.1,4c-2.5,4.1-2.2,7.9-0.2,12.4c4.2,9.3,7.7,18.8,11,28.4c1.7,4.9-0.4,7.8-4.8,9
		c-4.5,1.3-8.9-0.8-10.4-4.9C41.3,90,40.8,88.7,40.4,87.4z M136.8,94.5c-2.6,3.7,0.1,5.5,1.5,7.5c3.3,4.8,8.2,6.1,13.9,3.9
		c5.2-2.1,8.4-7.9,7.6-13.1c-1.5-9.4-5.7-17.5-12-24.6c-3.3-3.7-6.2-7.8-5.2-13.1c0.4-2,2.2-4.5,4-5.1c1.8-0.6,4.3,0.8,6.3,1.8
		c1.2,0.6,1.8,2.2,3.3,4.1c1.4-4.7-0.8-7-3.5-8.6c-3.6-2.2-7.2-1.7-10.3,1.5c-5.2,5.4-4.8,13.3,1.2,20.4
		c6.4,7.6,11.6,15.7,12.5,25.8c0.2,2.1-0.9,5.1-2.4,6.4c-4.7,3.9-10.9,2.3-14-2.9C139,97.2,138,96.1,136.8,94.5z M106.1,45.9
		c-0.5-0.1-0.9-0.1-1.4-0.2c-0.4,0.8-1.1,1.5-1.1,2.3c-0.3,5.8-0.7,11.6-0.6,17.4c0.3,11.1,0.3,22.2,1.5,33.2
		c0.7,6.6,6.1,8.3,11.9,4.7c4.8-3.1,5.8-8.3,7.2-13.3c3.8-13.6,1.4-27.4,1.9-41.1c0-0.8-0.2-1.6-0.3-2.3c-0.8,0.3-1.6,0.6-2.4,0.8
		c0,4.7-0.3,9.5,0.2,14.1c1.3,11.4,0.4,22.6-3.5,33.4c-0.7,2.1-2.4,4.1-4.2,5.4c-3.4,2.4-6.8,1-7.9-3.1c-0.7-2.6-1.4-5.2-1.4-7.8
		c0-13,0.1-26,0.2-39C106.3,48.8,106.1,47.3,106.1,45.9z"/>
	<path d="M192.4,103.3c-0.8-3.4-1.5-5.6-1.7-7.9c-0.3-3.3-2.2-4.3-5.1-4.2c-1.7,0-3.4,0.2-5.2,0.4c-7.8,1-8.2,1.5-9.6,8.9
		c-0.2,0.9-0.3,1.9-0.6,2.7c-0.1,0.4-0.6,0.6-2.2,0.9c0.1-2.4-0.1-4.8,0.4-7.1c3.5-16.2,7.2-32.4,10.8-48.6c0.2-1,0.7-2,1-3
		C186.8,49.6,196.6,93.9,192.4,103.3z M189,86.8c-1.7-10.5-2.1-20.9-7.7-30.5c-2.4,10.5-4.7,21-7.2,32
		C179.3,87.8,183.7,87.3,189,86.8z"/>
	<path d="M258.7,46.7c-1.4,0.3-2.7,0.8-4.1,0.8c-4.4,0.2-8.8,0.3-13.1,0.2c-3-0.1-3.8,1.2-3.8,3.9c0.1,7,0.1,14.1,0.1,21.8
		c4.4-0.1,8.2-0.2,12.1-0.2c1.3,3.3-0.9,3.8-3.2,4.1c-8.5,1.2-8.7,1.2-9.2,9.5c-0.2,3.6,0.2,7.2,0.7,10.8c0.4,3.4,3.1,3.6,5.7,3.4
		c5.8-0.4,11.5-1,17.3-1.5c0.3,0.5,0.6,0.9,0.9,1.4c-1.3,0.9-2.4,2.5-3.8,2.7c-4.9,0.8-9.9,1.4-14.9,1.7c-5.8,0.3-8.5-2.1-8.6-7.9
		c-0.2-15.7-0.2-31.4,0.1-47c0.1-6.7,0.5-6.8,7.5-6.7c4.1,0,8.1,0,12.2,0.2c1.4,0.1,2.8,0.8,4.2,1.2
		C258.7,45.6,258.7,46.2,258.7,46.7z"/>
	<path d="M91,103.5c-0.5-3.8-1.1-7.7-1.5-11.5c-0.3-2.9-2-3.7-4.5-3.3c-3.2,0.5-6.6,0.7-9.6,1.9c-1.6,0.6-2.6,2.8-3.6,4.5
		c-0.9,1.7-1.4,3.6-3.1,5.1c4.3-19.1,5.6-38.9,16-56.2c4.9,19.7,9.2,39.2,8.3,59.3C92.4,103.3,91.7,103.4,91,103.5z M83.5,52.3
		c-0.5,0-1,0-1.5-0.1c-2.7,11.2-5.4,22.4-8.2,33.7c14.5,0.8,15.8-0.6,14.2-13.4c-0.1-0.6-0.2-1.2-0.3-1.8
		C86.2,64.6,84.8,58.4,83.5,52.3z"/>
	<path d="M221.3,59.7c-1.8-3.7-2.8-6.7-4.7-9.1c-1.6-2-4.2-3.2-6.3-4.8c-1.3,2-3.5,4-3.6,6.1c-0.4,8.7-0.5,17.5-0.1,26.2
		c0.2,5,1.6,9.9,2.3,14.8c0.5,3.5,1.8,6.1,5.6,6.4c3.7,0.3,6.2-1.5,6.7-5.1c0.8-5.3,1.1-10.6,1.7-16.5c-2.5,0.3-3.5,0.5-4.6,0.5
		c-1.1,0-2.2-0.2-3.3-0.4c0.7-1.1,1.2-2.6,2.2-3.1c1.8-0.9,3.8-1.1,6.3-1.7c2.3,8.9,2.9,17.3-1.1,25.5c-1.7,3.5-4.8,5.2-8.9,4.8
		c-4-0.4-6.7-2.9-7.3-6.4c-1.7-9.2-3.3-18.5-3.7-27.8c-0.3-6.9,0.8-14.1,2.3-20.9c1.5-6.9,7.3-8.1,12.4-3.3
		C220.9,48.5,223.1,54.8,221.3,59.7z"/>
	<path d="M40.4,87.4c0.5,1.3,0.9,2.6,1.4,3.9c1.5,4.1,5.9,6.2,10.4,4.9c4.5-1.3,6.5-4.2,4.8-9c-3.3-9.6-6.9-19.1-11-28.4
		c-2-4.5-2.2-8.4,0.2-12.4c2.8-4.7,8.8-6.4,13.1-4c4.2,2.4,5.6,8.8,2.4,14.5c-0.4-2.5-0.8-4.2-1-5.9c-0.3-3.1-1.6-5.8-4.8-6.1
		c-2-0.2-5.1,0.7-6,2.2c-1.3,2.1-1.9,5.5-1.1,7.7c2.9,7.8,6.5,15.2,9.9,22.8c2.7,6.2,3.9,12.3-0.8,18.2c-2.6,3.3-8.1,5.5-11.8,4
		c-4-1.6-8-3.5-8.2-8.6c0-1.2,0.7-2.5,1-3.8C39.4,87.2,39.9,87.3,40.4,87.4z"/>
	<path d="M136.8,94.5c1.2,1.6,2.2,2.7,2.9,3.9c3.1,5.2,9.3,6.7,14,2.9c1.6-1.3,2.6-4.3,2.4-6.4c-0.9-10.1-6.1-18.2-12.5-25.8
		c-6-7.1-6.4-15-1.2-20.4c3-3.1,6.6-3.7,10.3-1.5c2.7,1.6,4.8,3.8,3.5,8.6c-1.5-1.9-2.1-3.5-3.3-4.1c-2-1-4.5-2.3-6.3-1.8
		c-1.7,0.6-3.6,3.1-4,5.1c-1.1,5.2,1.9,9.3,5.2,13.1c6.3,7.1,10.5,15.2,12,24.6c0.9,5.3-2.4,11.1-7.6,13.1
		c-5.6,2.2-10.6,0.9-13.9-3.9C137,100,134.3,98.2,136.8,94.5z"/>
	<path d="M106.1,45.9c0.1,1.5,0.2,2.9,0.2,4.4c-0.1,13-0.3,26-0.2,39c0,2.6,0.7,5.3,1.4,7.8c1.1,4.1,4.5,5.5,7.9,3.1
		c1.8-1.3,3.4-3.3,4.2-5.4c3.8-10.8,4.7-22,3.5-33.4c-0.5-4.7-0.1-9.4-0.2-14.1c0.8-0.3,1.6-0.6,2.4-0.8c0.1,0.8,0.3,1.6,0.3,2.3
		c-0.5,13.7,1.9,27.6-1.9,41.1c-1.4,5-2.3,10.2-7.2,13.3c-5.7,3.6-11.2,2-11.9-4.7c-1.2-11-1.3-22.1-1.5-33.2
		c-0.1-5.8,0.3-11.6,0.6-17.4c0-0.8,0.7-1.5,1.1-2.3C105.1,45.7,105.6,45.8,106.1,45.9z"/>
	<path class="st0" d="M189,86.8c-5.3,0.5-9.7,1-14.9,1.5c2.5-11,4.8-21.5,7.2-32C186.9,65.9,187.3,76.4,189,86.8z"/>
	<path class="st0" d="M83.5,52.3c1.4,6.1,2.8,12.2,4.2,18.4c0.1,0.6,0.2,1.2,0.3,1.8c1.7,12.8,0.3,14.2-14.2,13.4
		c2.8-11.4,5.5-22.5,8.2-33.7C82.4,52.3,82.9,52.3,83.5,52.3z"/>
</g>
</svg>
