<?xml version="1.0" encoding="utf-8"?>
<!-- Generator: Adobe Illustrator 22.1.0, SVG Export Plug-In . SVG Version: 6.00 Build 0)  -->
<svg version="1.1" id="Layer_1" xmlns="http://www.w3.org/2000/svg" xmlns:xlink="http://www.w3.org/1999/xlink" x="0px" y="0px"
	 viewBox="0 0 307 154" style="enable-background:new 0 0 307 154;" xml:space="preserve">
<style type="text/css">
	.st0{fill:#F7CB5F;}
</style>
<path d="M301.1,127.3c-5.2-0.8-8.9-1.4-12.7-2c-3.7-0.5-5.8,0.3-5.3,4.9c0.5,4.2,0.1,8.4,0.1,12.7c-0.7,0.2-1.3,0.4-2,0.6
	c-3.4-3.6-6.7-7.2-10.4-11.1c-2.1,6.6-3.9,12.6-6.2,19.9c-3.6-5.8-6.4-10.3-9.6-15.5c-4.9,5.9-9.1,11.2-13.9,17
	c-2.5-4.9-4.4-8.8-6.7-13.1c-4.2,3.6-7.9,6.8-11.9,10.3c-2.6-4.9-4.9-9.3-7.3-13.8c-6.1,5.9-11.7,11.2-18.1,17.3
	c-1.5-5.7-2.7-9.8-4-14.6c-3.9,3.7-7.2,6.8-10.7,10.1c-2.8-5-5.3-9.4-8.1-14.4c-5,5.4-9.3,10.1-14.2,15.4c-1.3-5.6-2.5-10.6-4-16.8
	c-4.5,4.9-8,8.8-12.1,13.2c-2-4-3.7-7.6-6.2-12.4c-6.1,6.1-11.3,11.3-16.7,16.7c-2.1-4.6-4.3-9.4-7-15.5
	c-5.5,5.7-10.1,10.6-15.1,15.9c-1.6-5.5-3-10.7-4.6-16.4c-5.6,4.7-10.4,8.8-15.9,13.4c-1.4-5.5-2.5-9.9-3.8-15.2
	c-5.6,5.3-10.3,9.8-15.5,14.6c-1.6-5.6-3.2-10.7-4.9-16.6c-5,4.4-9,7.8-13.9,12.1c-0.4-6.1-0.8-10.9-1.2-16.4
	c-7.2,2.9-13.7,5.6-20.3,8.3c-0.2-0.3-0.5-0.6-0.7-1c2.4-5.2,4.8-10.5,7.6-16.4c-7.1,0-13.3,0-20.9,0c4.7-5.2,8.8-9.6,13.5-14.7
	C12.7,100.4,7,97.2,0.5,93.5c5.3-1.8,9.7-3.4,14.9-5.2c-5.5-4-10.2-7.5-15.8-11.6c6-2.1,10.5-3.7,16.1-5.6C9.8,67,5,63.5-1.1,59.3
	c6.6-1.7,11.8-3,18.1-4.6c-6-4.5-11.2-8.3-16.4-12.2c0-0.5,0.1-1,0.1-1.5c3-0.4,6-1,9-1.2c3.1-0.2,6.2,0,10.1,0
	c-2.6-6.2-4.8-11.2-7.5-17.6c5.8,1.6,10.4,2.9,15.7,4.4c-1.2-5.7-2.2-10.6-3.2-15.5c0.4-0.4,0.8-0.7,1.2-1.1
	c4.9,2.7,9.9,5.3,15.5,8.3c1.7-5.9,3.3-11.4,5.3-18.1c3.8,5.1,6.7,9.2,10.1,13.7c2.7-4.3,5.2-8.1,8.3-13c2.5,5.8,4.5,10.5,6.9,16.1
	c5.1-4.9,9.6-9.2,14.6-14.1c0.9,5,1.7,9.3,2.7,15c5-4.5,9.1-8.1,13.8-12.3c1,3.9,1.9,7.1,3,11.1c4.2-5.2,7.8-9.7,12-14.9
	c1.8,4.2,3.3,7.7,5.3,12.2c3.1-4.1,5.5-7.4,8.5-11.4c2.2,4.4,4.1,8.2,6.5,13.1c4.8-5.3,9.1-9.9,14.2-15.4c1.2,5.9,2.1,10.2,3.2,15.6
	c4.9-4.3,8.9-7.8,13.5-11.8c0.8,4.7,1.5,8.5,2.4,13.6c5.2-4.4,9.3-7.9,13.8-11.7c1.1,4.2,2.1,7.9,3.3,12.5c5.4-4.5,10-8.4,15.3-12.8
	c1.6,4.5,2.9,8.4,4.7,13.3c4.2-3.2,7.9-5.9,12.2-9.2c1.8,4.1,3.3,7.6,5.2,11.8c3.5-2.6,6.8-4.9,9.9-7.5c3.1-2.6,4.8-1.5,6.1,1.7
	c1.1,2.6,2.3,5.2,3.6,8.1c6.9-5,13.4-9.7,20.9-15c0.9,4.6,1.4,8,2.2,11.4c2.5,10,3.2,10.4,12.7,7.4c2.5-0.8,5.1-1.5,8.8-2.6
	c-1.1,3.3-1.5,5.6-2.6,7.6c-1.9,3.4-1.9,5.4,2.6,6.3c4,0.8,7.9,2.3,12.7,3.8c-4.9,3.9-9.4,7.4-14.4,11.4c5.4,4.1,10.1,7.8,15.7,12.1
	c-5.1,2.4-9.1,4.2-13.6,6.3c4.9,5.4,9.3,10.1,14.5,15.8c-5.3,0.4-9.2,0.7-14,1.1c5.3,6.8,9.9,12.8,15.4,19.9c-5.5,0-9.7,0-14.9,0
	C295,115.6,297.6,120.7,301.1,127.3z M43.4,139.1c4.4-4.2,8.1-7.8,12.4-11.8c2,5.7,3.7,10.7,5.7,16.5c4.8-4.7,9.3-9,14.7-14.3
	c1.6,5.4,2.9,9.8,4.6,15.5c5.2-4.9,9.6-9.1,14.8-14c1.8,5.2,3.4,9.9,5.4,15.5c3.4-4.2,6.4-7.6,9.2-11.2c3-4,5-4,7.1,0.2
	c1.8,3.7,3.6,7.4,5.7,11.6c5.4-5.4,10.6-10.5,16.2-16.1c2.3,4,4.3,7.4,6.7,11.5c3.7-4.5,7.1-8.7,11.3-13.9
	c1.9,6.2,3.5,11.1,5.2,16.6c3.4-3.8,6.6-6.9,9.4-10.4c2.5-3.1,4.3-2.6,6.1,0.5c1.8,3.3,3.6,6.6,5.9,10.7c3.6-4,6.6-7.3,10.3-11.4
	c1.7,5.3,3.1,9.7,5.1,15.7c6.1-6,11.3-11.2,16.9-16.9c2.4,3.9,5,8.1,8.1,13.1c3.7-3.5,7.3-6.8,11.3-10.6c2.3,4.2,4.4,8,7.2,13.1
	c3.9-6.6,7.1-12,10.7-18.2c3.2,4.7,6.5,9.5,9.8,14.4c0.5,0,0.9-0.1,1.4-0.1c1.4-6,2.8-12,4.4-18.8c3.9,4.2,7.2,7.7,10.6,11.3
	c0.5-0.2,1-0.5,1.5-0.7c-0.2-3.4,0-6.9-0.7-10.3c-0.7-3.8,0.8-4.7,4-4.3c3.6,0.4,7.2,1,12.2,1.8c-3.4-6.1-6.1-11.1-9.3-16.8
	c5-0.3,9-0.5,14.6-0.8c-5.5-6.6-10.2-12.3-15.4-18.6c4.6-0.9,8.3-1.6,12.1-2.3c0.5-0.6,0.9-1.2,1.4-1.8c-4.6-3.8-9.3-7.6-14.7-12
	c5-2.5,8.7-4.4,13.3-6.7c-4.9-3.3-9.1-6.1-14.1-9.5c4.1-3.7,8.1-7.1,12.6-11.2c-5.5-1.6-10.1-3.1-15-4.5c1.2-3.5,2.2-6.7,3.7-11
	c-4.4,1.6-7.5,2.4-10.3,3.8c-3.6,1.7-5.7,0.9-6.9-2.8c-1.6-5-3.2-9.9-5.1-15.9c-6.6,5-13,9.8-19.6,14.7c-2.1-4.2-3.9-8-6.2-12.6
	c-4.9,3.7-9.2,7-13.8,10.5c-1.7-4.3-3.2-8-5-12.5c-4.3,3.5-7.8,6.3-11.8,9.7c-1.9-4.7-3.4-8.6-5.3-13.3c-5,4.2-9.6,8-14.7,12.4
	c-1.4-4.4-2.5-8-3.9-12.1c-4.3,3.8-8.4,7.3-13.3,11.6c-1.1-4.5-2-8-3.2-12.6c-4.4,3.8-8.2,7.2-12.6,11c-1.2-4.6-2.2-8.7-3.3-12.8
	c-0.5-0.3-0.9-0.6-1.4-0.8c-3.8,4.8-7.6,9.5-11.6,14.6c-2.2-4.2-4.5-8.7-7.2-13.7c-3.2,4.3-5.8,7.8-8.7,11.8
	c-1.7-4.3-3-7.6-4.9-12.7c-4.2,5.7-7.7,10.3-11.7,15.7c-1.3-4.4-2.4-8.1-3.8-12.6c-4.7,4.3-8.9,8.2-13.8,12.7c-1.2-5-2.2-9-3.5-14.1
	c-4.4,4.6-8.3,8.7-12.5,13.1c-2.3-5.1-4.3-9.7-6.9-15.4c-2.8,5-4.8,8.8-7.3,13.2c-3.3-4.4-6.1-8.1-9.1-12.1
	c-3.8,5-1.6,11.5-5.2,15.2c-5-3.2-9.4-5.9-13.7-8.6c-0.5,0.3-0.9,0.7-1.4,1c1.2,4.8,2.4,9.6,3.8,15.3c-5.2-1.4-9.5-2.6-15.4-4.2
	c2.9,6,5.2,10.6,7.9,16.2c-6.6,0-12.2,0-17.9,0c-0.2,0.5-0.3,0.9-0.5,1.4c5.1,3.6,10.3,7.2,16.7,11.7c-6.7,1.9-11.8,3.3-18.3,5.1
	c5.9,3.9,10.7,7,16.8,11c-6,2.4-10.7,4.3-16.4,6.6c5.6,3.6,10.4,6.8,16.2,10.5c-5.1,2.1-9.3,3.8-14.5,5.9c6.2,3.1,11.7,5.7,17,8.3
	c-4.3,4.2-8.2,8.1-12.1,12c0.3,0.5,0.6,1,0.9,1.4c5.5-0.3,11-0.6,17.3-0.9c-2,5.3-3.7,10.1-6,16.2c6.5-2.6,11.7-4.8,17.7-7.2
	C42,129.2,42.6,133.5,43.4,139.1z"/>
<path class="st0" d="M43.4,139.1c-0.8-5.6-1.3-9.9-2-14.7c-5.9,2.4-11.1,4.5-17.7,7.2c2.2-6.1,4-10.9,6-16.2
	c-6.3,0.3-11.8,0.6-17.3,0.9c-0.3-0.5-0.6-1-0.9-1.4c3.9-3.9,7.8-7.8,12.1-12c-5.3-2.6-10.7-5.3-17-8.3c5.1-2.1,9.3-3.8,14.5-5.9
	c-5.8-3.7-10.6-6.9-16.2-10.5c5.8-2.3,10.5-4.2,16.4-6.6c-6.1-4-10.9-7.2-16.8-11c6.4-1.8,11.6-3.2,18.3-5.1
	c-6.4-4.5-11.5-8.1-16.7-11.7c0.2-0.5,0.3-0.9,0.5-1.4c5.6,0,11.3,0,17.9,0c-2.7-5.6-5-10.2-7.9-16.2c5.8,1.6,10.2,2.8,15.4,4.2
	c-1.4-5.7-2.6-10.5-3.8-15.3c0.5-0.3,0.9-0.7,1.4-1c4.3,2.7,8.7,5.5,13.7,8.6c3.6-3.6,1.5-10.2,5.2-15.2c3,4,5.8,7.7,9.1,12.1
	c2.4-4.4,4.5-8.1,7.3-13.2c2.6,5.8,4.6,10.3,6.9,15.4c4.2-4.4,8.1-8.5,12.5-13.1c1.2,5.1,2.2,9.1,3.5,14.1
	c4.8-4.5,9.1-8.4,13.8-12.7c1.4,4.5,2.4,8.2,3.8,12.6c4.1-5.5,7.5-10,11.7-15.7c2,5.1,3.3,8.4,4.9,12.7c2.9-3.9,5.5-7.4,8.7-11.8
	c2.6,5.1,5,9.6,7.2,13.7c4-5,7.8-9.8,11.6-14.6c0.5,0.3,0.9,0.6,1.4,0.8c1,4.1,2.1,8.2,3.3,12.8c4.4-3.8,8.2-7.2,12.6-11
	c1.2,4.6,2.1,8.1,3.2,12.6c4.9-4.3,8.9-7.8,13.3-11.6c1.3,4.1,2.4,7.7,3.9,12.1c5.2-4.4,9.7-8.2,14.7-12.4c1.9,4.7,3.4,8.6,5.3,13.3
	c4.1-3.3,7.6-6.2,11.8-9.7c1.8,4.5,3.3,8.2,5,12.5c4.5-3.5,8.9-6.8,13.8-10.5c2.2,4.5,4.1,8.4,6.2,12.6c6.6-5,12.9-9.7,19.6-14.7
	c1.9,6,3.5,11,5.1,15.9c1.2,3.7,3.4,4.5,6.9,2.8c2.8-1.4,5.9-2.2,10.3-3.8c-1.5,4.3-2.5,7.5-3.7,11c4.9,1.5,9.6,2.9,15,4.5
	c-4.6,4-8.5,7.5-12.6,11.2c5,3.4,9.2,6.2,14.1,9.5c-4.6,2.3-8.3,4.2-13.3,6.7c5.4,4.4,10,8.2,14.7,12c-0.5,0.6-0.9,1.2-1.4,1.8
	c-3.8,0.7-7.6,1.4-12.1,2.3c5.2,6.3,9.9,12,15.4,18.6c-5.5,0.3-9.6,0.5-14.6,0.8c3.1,5.7,5.9,10.7,9.3,16.8c-5-0.7-8.6-1.3-12.2-1.8
	c-3.2-0.4-4.7,0.6-4,4.3c0.7,3.3,0.5,6.9,0.7,10.3c-0.5,0.2-1,0.5-1.5,0.7c-3.3-3.6-6.7-7.1-10.6-11.3c-1.6,6.8-3,12.8-4.4,18.8
	c-0.5,0-0.9,0.1-1.4,0.1c-3.3-4.9-6.6-9.7-9.8-14.4c-3.6,6.1-6.9,11.6-10.7,18.2c-2.8-5.1-4.9-8.9-7.2-13.1
	c-4,3.8-7.6,7.1-11.3,10.6c-3.1-5-5.7-9.2-8.1-13.1c-5.6,5.6-10.9,10.8-16.9,16.9c-1.9-6-3.4-10.4-5.1-15.7
	c-3.7,4.1-6.7,7.4-10.3,11.4c-2.2-4.1-4-7.4-5.9-10.7c-1.8-3.2-3.6-3.7-6.1-0.5c-2.8,3.5-5.9,6.6-9.4,10.4
	c-1.7-5.5-3.3-10.4-5.2-16.6c-4.3,5.2-7.7,9.4-11.3,13.9c-2.4-4.1-4.4-7.5-6.7-11.5c-5.6,5.6-10.8,10.7-16.2,16.1
	c-2.1-4.3-3.9-8-5.7-11.6c-2.2-4.3-4.2-4.2-7.1-0.2c-2.7,3.7-5.7,7.1-9.2,11.2c-1.9-5.6-3.6-10.3-5.4-15.5c-5.2,4.9-9.6,9.1-14.8,14
	c-1.7-5.7-3-10.1-4.6-15.5c-5.4,5.2-9.9,9.6-14.7,14.3c-2-5.7-3.7-10.8-5.7-16.5C51.5,131.3,47.8,134.8,43.4,139.1z M191.4,46.4
	c-0.7-0.1-1.4-0.2-2.2-0.4c-6.1,18.3-12.1,36.6-18.2,54.9c0.6,0.3,1.3,0.5,1.9,0.8c0.6-1.3,1.4-2.6,1.8-4c0.9-3.7,2.4-6,6.8-5.5
	c3.1,0.4,6.4,0.4,9.6-0.1c4.9-0.8,6.6,1.7,7.2,5.9c0.5,3.2,1.3,6.3,1.9,9.4c0.6-0.1,1.2-0.1,1.9-0.2c0.2-1.7,0.7-3.5,0.4-5.1
	c-2.8-14.2-5.7-28.4-8.6-42.7C193.1,55.1,192.3,50.8,191.4,46.4z M97.6,99.1c0.6,0.1,1.3,0.2,1.9,0.3c0.4-1.9,1.3-4,1-5.8
	c-2.3-15.8-4.8-31.6-7.4-47.3c-0.3-1.7-1.5-3.1-2.3-4.7c-1.2,1.5-3.1,2.7-3.6,4.4c-3.1,10.2-6.1,20.5-8.9,30.8
	c-1.6,5.9-2.9,12-4.4,18c0.4,0.2,0.8,0.4,1.2,0.6c0.7-1,1.6-1.9,2-3c1.2-3.3,0.8-7.6,6-7.9c3.7-0.2,7.3-0.8,11-0.8
	c0.7,0,1.7,2.1,1.9,3.3C96.7,90.9,97.1,95,97.6,99.1z M220.9,85.2c2.7-0.6,4.8-1.3,6.7-1.2c1.1,0,3,1.5,3,2.3
	c0.3,6.1-0.1,12.2-4.3,17.3c-3.1,3.8-7.9,3.4-10-1.1c-0.8-1.8-1.5-4-1.4-6c0.3-11.3,0.4-22.7,1.4-33.9c0.4-3.8,2.6-10,5.1-10.6
	c4.4-1.1,6.7,4.2,8.8,8c0.8,1.4,2.1,2.4,3.2,3.6c0.5-0.4,1.1-0.8,1.6-1.2c-1.7-3.3-2.9-7.1-5.4-9.7c-2.3-2.5-5.9-4.8-9.1-5
	c-1.6-0.1-3.8,4.4-5.3,7.1c-1,1.8-1.5,3.9-1.6,6c-0.7,10.8-1.3,21.7-1.8,32.5c-0.1,2.8,0.1,5.8,0.7,8.6c0.8,3.7,2.6,7.2,6.9,7.7
	c4.1,0.5,7.7-1.4,9-5.1c2.1-5.9,3.6-12.1,4.7-18.3c0.3-2-0.7-5.4-2.2-6.2C227.9,78.4,222.5,81.3,220.9,85.2z M248.5,68.6
	c0-1.2-0.1-2.2,0-3.1c1-13.9,0.2-12.5,14-12.6c0.6,0,1.3,0.4,1.9,0.3c1-0.3,2-0.9,3-1.4c-0.8-0.8-1.5-2.3-2.3-2.4
	c-3.5-0.3-7-0.4-10.5-0.3c-6.8,0.1-7.2,0.3-7.8,6.8c-1.5,16.4-2.6,32.8-4,49.2c-0.3,3.4,1.5,4,4.4,4.1c6.1,0.1,12.1,0.4,18.2,0.4
	c1.2,0,2.3-0.9,3.5-1.4c-1-0.8-1.9-2.3-3-2.3c-5.1-0.5-10.2-1-15.3-0.7c-4,0.2-4.7-1.2-4.2-4.7c0.5-3.6,0.9-7.3,1-11
	c0.2-7.4,0.1-7.3,7-8.9c1.2-0.3,2.2-1.3,3.2-2c-1.3-0.5-2.6-1.6-3.8-1.5c-6,0.4-6,0.5-5.5-5.4C248.4,70.6,248.4,69.4,248.5,68.6z
	 M44,86c0.4,2.3,0.2,4.4,1.1,5.7c3.9,5.6,13.6,6.6,18.8,1.7c1.6-1.5,2.7-4.3,2.6-6.5c-0.3-7.3-2.6-14-7.7-19.7
	c-5.6-6.4-9-13.6-6.1-22.4c1.4-4.4,3.7-5.5,7.5-3c2.6,1.7,4.7,4.3,6.9,6.5c1.7-3.6,0.1-6.8-5.2-9.6c-4.5-2.4-8.3-1.8-10.5,1.8
	c-4.6,7.6-4.1,17.6,1.2,24.8c4.3,5.9,9,11.6,10.1,19.3c0.9,6.5-2.3,10.1-8.6,8C51,91.5,48.3,88.9,44,86z M167.2,61.7
	c1-1.2,1.6-1.7,1.7-2.1c0.2-6-1.8-11-6.8-14.5c-2.7-1.9-5.5-2.5-8.4-0.4c-5.1,3.6-6,8.8-5.2,14.5c0.1,0.9,0.4,1.9,0.9,2.7
	c2.4,4.1,5,8.1,7.5,12.2c2.5,4.1,5.4,8,7.2,12.3c1.9,4.7,0,10.1-3.2,11.5c-5.2,2.3-13.1-0.9-15.5-6.3c-0.4-0.9-1.5-1.6-2.6-2.8
	c-0.5,1.5-1.1,2.3-1,3c0.4,5.3,5.5,9.2,12.5,9.9c6.6,0.6,10.5-1.5,11.8-7.1c1.5-6.4,1.7-12.8-2.6-18.4c-2.4-3-5.1-5.8-7.1-9
	c-2-3.2-3.9-6.6-4.9-10.2c-1-3.9,0.6-8.1,4.5-8.9c2.2-0.5,5.4,2.1,7.7,3.9c1.2,0.9,1.4,3.1,2,4.8C166,58.2,166.5,59.6,167.2,61.7z
	 M135.6,43.2c-0.4,0-0.8-0.1-1.2-0.1c-0.5,2.2-1.3,4.4-1.4,6.6c-0.2,9.6,0.1,19.2-0.2,28.8c-0.1,3.9-0.5,8.3-2.3,11.6
	c-1.4,2.6-5,5.1-8,5.6c-3.8,0.7-5.6-3.2-6.5-6.5c-0.6-2.3-0.6-4.7-0.6-7.1c0-11.8,0.1-23.7,0.1-35.5c0-1.1-0.3-2.3-0.5-3.4
	c-0.5,0-1-0.1-1.6-0.1c-0.4,2-1,4-1,6c-0.1,3.8,0.2,7.7,0.2,11.5c0,9.3-0.2,18.5,0,27.8c0.1,5.3,4.3,10.7,8.1,11.4
	c3.5,0.6,9.4-3,11.3-7.6c1.4-3.3,2.4-7,2.6-10.6c0.8-11.9,1.2-23.9,1.7-35.8C136.4,44.9,135.9,44,135.6,43.2z"/>
<path d="M191.4,46.4c0.8,4.3,1.6,8.7,2.5,13c2.9,14.2,5.8,28.4,8.6,42.7c0.3,1.6-0.3,3.4-0.4,5.1c-0.6,0.1-1.2,0.1-1.9,0.2
	c-0.6-3.1-1.4-6.2-1.9-9.4c-0.6-4.2-2.2-6.7-7.2-5.9c-3.1,0.5-6.4,0.5-9.6,0.1c-4.4-0.6-5.9,1.8-6.8,5.5c-0.3,1.4-1.2,2.7-1.8,4
	c-0.6-0.3-1.3-0.5-1.9-0.8c6.1-18.3,12.1-36.6,18.2-54.9C190,46.2,190.7,46.3,191.4,46.4z M178.2,88c6.4,0,11.8,0,17.9,0
	c-2.1-10.6-4.1-20.4-6.1-30.2c-0.6,0-1.2-0.1-1.8-0.1C184.8,67.7,181.6,77.6,178.2,88z"/>
<path d="M97.6,99.1c-0.5-4.1-0.9-8.2-1.6-12.2c-0.2-1.2-1.2-3.3-1.9-3.3c-3.7,0-7.3,0.6-11,0.8c-5.2,0.3-4.8,4.6-6,7.9
	c-0.4,1.1-1.3,2-2,3c-0.4-0.2-0.8-0.4-1.2-0.6c1.4-6,2.7-12,4.4-18C81.1,66.5,84,56.2,87.2,46c0.5-1.7,2.4-2.9,3.6-4.4
	c0.8,1.6,2.1,3.1,2.3,4.7c2.6,15.8,5.1,31.5,7.4,47.3c0.3,1.8-0.6,3.9-1,5.8C98.9,99.3,98.2,99.2,97.6,99.1z M80.1,80.5
	c4.8-0.4,8.6-0.5,12.3-1.2c0.8-0.2,1.9-2.4,1.8-3.6c-0.4-4.8-1-9.5-1.8-14.2c-0.6-3.8-1.6-7.5-2.4-11.2c-0.4,0-0.7,0-1.1,0.1
	C86,60,83.2,69.7,80.1,80.5z"/>
<path d="M220.9,85.2c1.6-3.9,6.9-6.8,9.9-5.2c1.5,0.8,2.6,4.3,2.2,6.2c-1.1,6.2-2.5,12.4-4.7,18.3c-1.3,3.6-4.9,5.6-9,5.1
	c-4.3-0.6-6-4-6.9-7.7c-0.6-2.8-0.8-5.7-0.7-8.6c0.5-10.8,1.1-21.7,1.8-32.5c0.1-2,0.7-4.2,1.6-6c1.5-2.7,3.7-7.2,5.3-7.1
	c3.2,0.2,6.8,2.6,9.1,5c2.5,2.6,3.6,6.4,5.4,9.7c-0.5,0.4-1.1,0.8-1.6,1.2c-1.1-1.2-2.4-2.3-3.2-3.6c-2.1-3.8-4.4-9.2-8.8-8
	c-2.5,0.6-4.8,6.8-5.1,10.6c-1,11.3-1.1,22.6-1.4,33.9c0,2,0.6,4.1,1.4,6c2,4.5,6.8,4.9,10,1.1c4.1-5.1,4.6-11.1,4.3-17.3
	c0-0.9-1.9-2.3-3-2.3C225.7,83.9,223.7,84.6,220.9,85.2z"/>
<path d="M248.5,68.6c-0.1,0.9-0.1,2-0.2,3.1c-0.5,5.9-0.5,5.8,5.5,5.4c1.2-0.1,2.5,1,3.8,1.5c-1.1,0.7-2.1,1.7-3.2,2
	c-6.9,1.6-6.8,1.5-7,8.9c-0.1,3.7-0.4,7.3-1,11c-0.5,3.5,0.2,4.9,4.2,4.7c5.1-0.3,10.2,0.2,15.3,0.7c1.1,0.1,2,1.5,3,2.3
	c-1.2,0.5-2.3,1.4-3.5,1.4c-6.1,0-12.1-0.3-18.2-0.4c-2.8,0-4.6-0.7-4.4-4.1c1.3-16.4,2.5-32.8,4-49.2c0.6-6.5,1-6.7,7.8-6.8
	c3.5-0.1,7,0,10.5,0.3c0.8,0.1,1.6,1.6,2.3,2.4c-1,0.5-1.9,1.1-3,1.4c-0.5,0.2-1.2-0.3-1.9-0.3c-13.8,0-13-1.4-14,12.6
	C248.4,66.4,248.5,67.4,248.5,68.6z"/>
<path d="M44,86c4.3,2.8,7,5.5,10.1,6.5c6.3,2,9.6-1.5,8.6-8c-1.1-7.7-5.8-13.3-10.1-19.3c-5.3-7.2-5.8-17.3-1.2-24.8
	c2.2-3.6,6-4.2,10.5-1.8c5.3,2.8,6.9,6,5.2,9.6c-2.2-2.2-4.3-4.8-6.9-6.5c-3.8-2.5-6.1-1.3-7.5,3c-2.9,8.8,0.5,16,6.1,22.4
	c5,5.7,7.4,12.4,7.7,19.7c0.1,2.2-1.1,5-2.6,6.5c-5.2,4.9-14.9,3.9-18.8-1.7C44.2,90.4,44.4,88.4,44,86z"/>
<path d="M167.2,61.7c-0.7-2.1-1.1-3.5-1.6-4.9c-0.6-1.6-0.8-3.9-2-4.8c-2.3-1.8-5.5-4.4-7.7-3.9c-3.9,0.9-5.5,5.1-4.5,8.9
	c1,3.6,2.9,7,4.9,10.2c2,3.2,4.8,6,7.1,9c4.4,5.6,4.1,12,2.6,18.4c-1.3,5.6-5.2,7.8-11.8,7.1c-7-0.7-12.1-4.6-12.5-9.9
	c-0.1-0.7,0.5-1.4,1-3c1.2,1.2,2.2,1.9,2.6,2.8c2.4,5.3,10.3,8.6,15.5,6.3c3.1-1.4,5.1-6.8,3.2-11.5c-1.8-4.4-4.7-8.3-7.2-12.3
	c-2.5-4.1-5-8.1-7.5-12.2c-0.5-0.8-0.8-1.8-0.9-2.7c-0.9-5.7,0.1-10.8,5.2-14.5c2.9-2.1,5.7-1.5,8.4,0.4c5,3.5,7,8.5,6.8,14.5
	C168.8,60.1,168.1,60.5,167.2,61.7z"/>
<path d="M135.6,43.2c0.3,0.8,0.9,1.7,0.8,2.5c-0.5,11.9-0.9,23.9-1.7,35.8c-0.2,3.6-1.2,7.3-2.6,10.6c-1.9,4.6-7.8,8.2-11.3,7.6
	c-3.8-0.7-8-6.1-8.1-11.4c-0.2-9.3,0-18.5,0-27.8c0-3.8-0.3-7.7-0.2-11.5c0-2,0.7-4,1-6c0.5,0,1,0.1,1.6,0.1
	c0.2,1.1,0.5,2.3,0.5,3.4c0,11.8-0.1,23.7-0.1,35.5c0,2.4,0,4.8,0.6,7.1c0.9,3.3,2.7,7.2,6.5,6.5c3-0.5,6.6-3,8-5.6
	c1.8-3.3,2.1-7.7,2.3-11.6c0.3-9.6,0.1-19.2,0.2-28.8c0-2.2,0.9-4.4,1.4-6.6C134.8,43.1,135.2,43.2,135.6,43.2z"/>
<path class="st0" d="M178.2,88c3.4-10.3,6.6-20.3,9.9-30.2c0.6,0,1.2,0.1,1.8,0.1c2,9.8,4,19.6,6.1,30.2C190,88,184.6,88,178.2,88z"
	/>
<path class="st0" d="M80.1,80.5C83.2,69.7,86,60,88.8,50.3c0.4,0,0.7,0,1.1-0.1c0.8,3.7,1.8,7.5,2.4,11.2c0.8,4.7,1.5,9.5,1.8,14.2
	c0.1,1.2-1,3.4-1.8,3.6C88.7,80,84.9,80.1,80.1,80.5z"/>
</svg>
