<?xml version="1.0" encoding="utf-8"?>
<!-- Generator: Adobe Illustrator 22.1.0, SVG Export Plug-In . SVG Version: 6.00 Build 0)  -->
<svg version="1.1" id="Layer_1" xmlns="http://www.w3.org/2000/svg" xmlns:xlink="http://www.w3.org/1999/xlink" x="0px" y="0px"
	 viewBox="0 0 307 154" style="enable-background:new 0 0 307 154;" xml:space="preserve">
<style type="text/css">
	.st0{fill:#F7CB5F;}
</style>
<path d="M206,24c5.3-5.2,9.6-9.4,14.7-14.4c1.9,4.1,3.5,7.3,4.9,10.6c1.4,3.3,3.1,3.7,5.8,1.3c3.9-3.4,8-6.5,12.6-10.2
	c1.9,5.1,3.6,9.8,5.5,15.1c4.3-2.5,7.8-4.7,11.6-6.7c1.7-0.9,3.6-1.3,5.4-1.9c0.4,1.7,0.9,3.4,1.2,5.1c0.3,1.8,0.4,3.6,0.7,5.9
	c3.7-0.4,7.5-0.5,11.2-1.2c3.7-0.7,4.8,0.8,4.4,4.1c-0.2,1.8-0.7,3.6-1.2,5.3c-1.9,5.9-1.9,5.8,3.9,7.3c4.4,1.2,8.7,2.7,13,4.1
	c0.1,0.5,0.3,1,0.4,1.5c-4.6,3-9.1,6-14,9.2c6.3,3.5,12.2,6.8,18.9,10.5c-5.5,3.8-10.1,6.9-15.3,10.5c6,4.2,11.1,7.9,17,12
	c-6.2,3.1-12,6.1-18.3,9.2c3.3,6.4,6.2,12.2,9.1,17.9c-0.3,0.4-0.5,0.8-0.8,1.2c-4.8-1.1-9.5-2.1-14.7-3.2
	c-0.3,6.9-0.5,13.7-0.8,20.6c-0.5,0.4-1.1,0.7-1.6,1.1c-5.1-3.3-10.2-6.6-15.7-10.1c-3.7,7-7.4,13.9-11.5,21.8
	c-3.1-5.6-5.7-10.2-8.6-15.4c-4.6,6.4-8.7,12-13.3,18.5c-2.8-6.1-5.1-11-7.7-16.8c-4.5,6.2-8.4,11.6-13.1,18
	c-2.8-6-5.1-10.9-7.8-16.6c-4.8,5.6-8.9,10.5-13.3,15.6c-3.3-6.6-6.1-12.3-9.3-18.5c-5.7,6.6-10.5,12.2-15.7,18.3
	c-1.9-5.8-3.5-10.6-5.1-15.3c-0.5-0.1-1-0.2-1.6-0.3c-3.5,4.2-7,8.4-10.8,12.9c-2.5-3.6-4.8-6.8-7-10.1c-2.4-3.5-4.8-3.9-7.4-0.2
	c-2.8,4.1-5.7,8.1-8.6,12.2c-0.6-0.3-1.1-0.5-1.7-0.8c-1.9-4-3.7-8.1-5.6-12.2c-3.7,4.2-7,7.9-10.2,11.5c-2.7-4.4-5.4-9-8.8-14.5
	c-5.2,6-9.7,11.2-14.7,17c-2.5-6.3-4.9-12.2-7.5-18.6c-8,4.3-15.4,8.4-23.4,12.8c0.5-5,0.9-9.1,1.5-14.1c-6.5,3.3-11.8,6-17.8,9.1
	c0.1-6.8,0.2-12.7,0.3-18.6c-7.6-0.7-14.6-1.2-22.8-2c3.1-4.2,5.7-7.7,8.4-11.4c-6.1-2.5-11.7-4.8-18.3-7.6
	c4.8-3.6,8.5-6.4,12.2-9.2c-4.8-3.6-9.1-6.9-14.3-10.8c5.6-3,10.5-5.7,15.7-8.6c-3.3-5.1-6.2-9.5-9.7-14.8c5.2-0.2,9.5-0.3,14.6-0.5
	c-3.1-5.7-6-10.8-9.5-17.1c5.9,1.4,10.4,2.4,15.3,3.5c-0.7-6.5-1.3-12.3-2-19.2c5.7,3.5,10.5,6.5,15.8,9.8
	c2.2-7.4,4.1-13.7,6.3-21.1c3.4,3.8,6.1,6.7,9,9.9c2.8-4.5,5.2-8.5,8.1-13.2c3,3.6,5.5,6.6,8.6,10.4c3.1-7.8,5.8-14.8,9-22.7
	c2,6.7,3.6,12.1,5.2,17.5c0.4,0,0.9,0.1,1.3,0.1c2.7-4.1,5.3-8.2,8-12.3c0.5,0,1-0.1,1.5-0.1c1.9,5.2,3.9,10.4,5.8,15.7
	c0.5,0.1,0.9,0.2,1.4,0.3c2.8-5,5.6-9.9,8.4-14.9c0.4,0,0.8,0,1.2,0.1c1.1,3.5,2.1,7.1,3.5,11.7c2.7-4.7,5-8.7,8-13.8
	c1.7,4.3,3,7.5,4.6,11.5c3.8-3.2,7-6.1,10.9-9.4c1.4,4.7,2.6,8.9,4.1,14.1c5-4.6,9.2-8.5,14.2-13.1c1.5,5.1,2.8,9.3,4.3,14.5
	c5.6-4.7,10.7-8.9,16.4-13.6c1,4.5,1.8,8.2,2.7,12.7c5.5-4.1,10.3-7.8,15.3-11.5C201.2,14.4,203.4,18.8,206,24z M277,134.6
	c0.6-0.2,1.3-0.5,1.9-0.7c-0.2-6.8-0.3-13.6-0.5-20.9c4.6,1.3,8.8,2.4,13.1,3.6c0.2-0.4,0.5-0.8,0.7-1.3c-2.2-3.8-4.4-7.5-6.7-11.3
	c-1.5-2.4-1.4-4,1.6-5.3c4.6-2,9-4.5,14.1-7.1c-5.7-3.9-10.7-7.4-16.5-11.3c5.1-3.8,9.6-7.1,14.8-11c-6.6-3.3-12.5-6.4-19.4-9.9
	c5.4-3.5,9.7-6.2,13.9-8.9c0-0.4-0.1-0.9-0.1-1.3c-4.1-1-8.1-2.5-12.2-2.7c-4.6-0.2-4.5-2-3.5-5.5c1-3.1,1.4-6.3,2.2-9.9
	c-5.9,0.6-10.6,1.1-15.7,1.7c-0.4-3.8-0.8-7.4-1.3-12c-4.4,2.9-8.3,5.2-11.9,7.9c-2.8,2.1-4.4,1.5-5.5-1.5c-1.3-3.5-2.6-7-4-11.1
	c-4.1,3.4-7.7,6.4-11.4,9.3c-4.2,3.3-4.8,3.2-7.3-1.7c-1.4-2.8-2.7-5.7-4.6-9.4c-4.9,5.2-9.1,9.8-14,15c-3-5.6-5.6-10.4-8.5-15.9
	c-5,4.3-9.5,8.2-14.5,12.6c-1.3-4.5-2.4-8.5-3.7-13c-5.3,4.5-10.1,8.6-15.7,13.3c-1.6-5.1-2.9-9.4-4.4-14.4
	c-4.7,4.5-8.9,8.4-13.9,13.2c-1.7-5.2-2.9-9.3-4.2-13.3c-5.1,1.4-6.4,8.1-11.7,8.2c-0.8-3.5-1.4-6.4-2.1-9.4c-0.4,0-0.8,0-1.2,0
	c-2.1,4.3-4.3,8.5-7.1,14.1c-1.7-5.2-3-9.2-4.6-14c-2,4-3.4,7.1-5.2,10.1c-0.8,1.3-2.4,3.1-3.7,3.1c-1.2,0-2.7-1.9-3.3-3.3
	c-1.5-3.3-2.6-6.9-3.8-10.3c-0.4,0-0.9,0-1.3,0c-2.4,4.4-4.8,8.9-7.8,14.5c-2.6-5.8-4.7-10.4-7.3-16.2c-2.5,7-4.5,12.9-6.9,19.7
	c-3.6-4.1-6.5-7.5-10.2-11.7c-2.5,4.9-4.7,9.1-7,13.6c-3-3.2-5.7-6.1-9.3-9.8c-1.2,4.7-2.3,8.4-3,12c-1.5,7.6-2.2,8-9,4.1
	c-2.5-1.4-4.8-3.1-8.3-5.3c1.2,6.7,2.2,11.9,3.3,17.9c-4.9-1-8.8-1.7-13.8-2.7c3.3,5.6,6,10.2,9.2,15.7c-5.2,0.3-9.3,0.5-14.2,0.7
	c3.3,4.5,6,8.2,9.2,12.5c-5.4,2.8-10.2,5.2-16,8.2c5.5,3.6,10.1,6.6,15.2,9.9c-4.1,3.1-7.7,5.9-12.4,9.5c6.7,2.4,12.4,4.3,18.1,6.3
	c0.5,0.5,0.9,1,1.4,1.4c-3.2,2.8-6.5,5.7-9.7,8.5c0.4,0.5,0.8,1.1,1.3,1.6c5.1,0.1,10.3,0.6,15.4,0.3c3.5-0.2,4.3,1,4.2,4.1
	c-0.2,4-0.2,8-0.4,12.9c6.1-3.3,11.2-6,17-9.2c0.2,4.9,0.3,8.8,0.4,13.2c1.8-0.9,3.3-1.5,4.6-2.3c3.5-2.2,6.9-4.5,10.4-6.8
	c5.2-3.4,5.5-3.3,7.6,2.4c1.5,4,3.2,8,5.1,12.9c5-5.8,9.2-10.7,14-16.4c3.3,4.8,6.4,9.2,9.9,14.3c3-4.2,5.8-8.2,9-12.6
	c2.2,4.5,4.1,8.4,5.9,12.1c3.4-3.6,6.7-6.8,9.7-10.2c2.8-3.1,5.1-3.4,7.7,0.2c2.4,3.4,5.2,6.5,8.1,10.1c3.9-4.8,7.3-9,11.2-13.7
	c2.2,5.3,4.3,10.2,6.8,16.2c4.8-6.2,9.2-11.8,14.2-18.2c3.5,6.5,6.6,12.3,10.1,18.8c4.1-5.3,7.9-10.3,12.3-16.1
	c2.8,5.6,5.3,10.7,8.3,16.7c4.3-6.2,8.1-11.6,12.5-17.9c2.9,5.6,5.6,10.6,8.6,16.4c4.2-6.2,7.9-11.9,12.3-18.3
	c3.1,5.1,5.9,9.6,9.3,15.1c3.5-7.3,6.6-14.1,9.7-20.6C267.4,127.7,272.2,131.2,277,134.6z"/>
<path class="st0" d="M277,134.6c-4.8-3.4-9.5-6.9-14.5-10.5c-3.1,6.6-6.3,13.3-9.7,20.6c-3.4-5.5-6.1-9.9-9.3-15.1
	c-4.3,6.5-8.1,12.1-12.3,18.3c-3-5.8-5.7-10.8-8.6-16.4c-4.4,6.3-8.2,11.7-12.5,17.9c-3-6-5.5-11-8.3-16.7
	c-4.4,5.8-8.3,10.8-12.3,16.1c-3.5-6.5-6.6-12.3-10.1-18.8c-5,6.4-9.4,12-14.2,18.2c-2.5-6-4.6-11-6.8-16.2
	c-3.9,4.7-7.3,8.9-11.2,13.7c-2.9-3.6-5.6-6.8-8.1-10.1c-2.6-3.6-4.9-3.3-7.7-0.2c-3,3.4-6.2,6.6-9.7,10.2
	c-1.8-3.7-3.7-7.6-5.9-12.1c-3.2,4.5-6,8.4-9,12.6c-3.5-5.1-6.6-9.5-9.9-14.3c-4.8,5.6-9,10.6-14,16.4c-1.9-4.8-3.6-8.8-5.1-12.9
	c-2.1-5.6-2.4-5.8-7.6-2.4c-3.4,2.3-6.9,4.6-10.4,6.8c-1.4,0.9-2.9,1.4-4.6,2.3c-0.2-4.5-0.3-8.4-0.4-13.2c-5.8,3.1-10.9,5.9-17,9.2
	c0.1-4.9,0.2-8.9,0.4-12.9c0.2-3.1-0.7-4.3-4.2-4.1c-5.1,0.3-10.3-0.2-15.4-0.3c-0.4-0.5-0.8-1.1-1.3-1.6c3.2-2.8,6.5-5.7,9.7-8.5
	c-0.5-0.5-0.9-1-1.4-1.4c-5.7-2-11.3-3.9-18.1-6.3c4.7-3.6,8.4-6.4,12.4-9.5c-5.1-3.3-9.7-6.3-15.2-9.9c5.9-3,10.6-5.4,16-8.2
	c-3.2-4.4-5.9-8.1-9.2-12.5c4.9-0.3,9.1-0.5,14.2-0.7C22.7,56.6,20,52,16.7,46.4c4.9,1,8.8,1.7,13.8,2.7c-1.1-5.9-2.1-11.2-3.3-17.9
	c3.4,2.2,5.8,3.9,8.3,5.3c6.9,3.9,7.6,3.5,9-4.1c0.7-3.7,1.8-7.3,3-12c3.5,3.7,6.3,6.6,9.3,9.8c2.3-4.5,4.5-8.7,7-13.6
	c3.6,4.2,6.6,7.5,10.2,11.7c2.4-6.8,4.4-12.6,6.9-19.7c2.6,5.8,4.7,10.4,7.3,16.2c3-5.6,5.4-10,7.8-14.5c0.4,0,0.9,0,1.3,0
	c1.2,3.5,2.3,7,3.8,10.3c0.6,1.4,2.2,3.3,3.3,3.3c1.2,0,2.8-1.7,3.7-3.1c1.8-2.9,3.2-6.1,5.2-10.1c1.6,4.9,2.9,8.8,4.6,14
	c2.8-5.6,5-9.9,7.1-14.1c0.4,0,0.8,0,1.2,0c0.6,2.9,1.3,5.9,2.1,9.4c5.3-0.1,6.5-6.8,11.7-8.2c1.3,4,2.6,8.1,4.2,13.3
	c5-4.7,9.2-8.7,13.9-13.2c1.5,5,2.8,9.2,4.4,14.4c5.5-4.7,10.3-8.8,15.7-13.3c1.3,4.5,2.4,8.4,3.7,13c5-4.3,9.5-8.3,14.5-12.6
	c2.9,5.5,5.5,10.3,8.5,15.9c4.9-5.2,9.1-9.8,14-15c1.8,3.8,3.2,6.6,4.6,9.4c2.5,4.9,3.1,5.1,7.3,1.7c3.7-2.9,7.3-5.9,11.4-9.3
	c1.5,4.1,2.7,7.6,4,11.1c1.1,3,2.7,3.6,5.5,1.5c3.6-2.7,7.5-5,11.9-7.9c0.5,4.6,0.9,8.1,1.3,12c5.1-0.5,9.8-1,15.7-1.7
	c-0.8,3.7-1.2,6.9-2.2,9.9c-1.1,3.4-1.1,5.3,3.5,5.5c4.1,0.2,8.2,1.8,12.2,2.7c0,0.4,0.1,0.9,0.1,1.3c-4.3,2.7-8.5,5.5-13.9,8.9
	c7,3.6,12.9,6.6,19.4,9.9c-5.2,3.9-9.7,7.2-14.8,11c5.7,3.9,10.8,7.4,16.5,11.3c-5,2.6-9.5,5.1-14.1,7.1c-3,1.3-3,2.9-1.6,5.3
	c2.3,3.7,4.5,7.5,6.7,11.3c-0.2,0.4-0.5,0.8-0.7,1.3c-4.2-1.2-8.5-2.3-13.1-3.6c0.2,7.3,0.3,14.1,0.5,20.9
	C278.3,134.2,277.6,134.4,277,134.6z M98.6,108.9c0.6,0,1.3-0.1,1.9-0.1c0.1-1.6,0.5-3.3,0.1-4.8c-1.2-5.2-2.9-10.3-4.1-15.5
	c-3.1-12.5-6-24.9-9-37.4c-0.3-1.2-1.2-2.2-1.9-3.3c-1.1,0.8-2.6,1.3-3.1,2.3c-1,2.2-1.7,4.6-2,7c-2.2,15.4-4.2,30.8-6.2,46.2
	c-0.1,0.9,0.1,1.9,0.1,2.9c0.4,0.1,0.8,0.2,1.2,0.3c0.6-1.7,1.8-3.4,1.7-5.1c-0.1-3.1,1.5-3.7,3.9-3.6c4.7,0.1,9.3,0.3,14.1,0.5
	C96.5,102,97.6,105.5,98.6,108.9z M194.9,110.7c0.4,0,0.9-0.1,1.3-0.1c0-1.8,0.4-3.8-0.1-5.5c-3.5-11.5-7.1-23-10.8-34.4
	c-2.1-6.6-4.5-13.1-6.8-19.6c-0.5,0-1,0-1.6-0.1c-4.5,19.7-7,39.8-8.4,60.3c1.1-0.4,1.7-1.3,1.7-2.1c-0.1-7.4,5-6.8,9.9-6.5
	c1.4,0.1,2.7-0.2,4.1-0.3c6.9-0.4,6.9-0.4,9.3,6.1C194,109.2,194.5,110,194.9,110.7z M225.1,84.3c-0.4,5.6-0.4,10.8-1.2,15.9
	c-0.7,4.4-4.1,6-7.8,3.5c-2.6-1.7-5-4.6-6.2-7.5c-3.6-8.9-3.2-18.3-1.9-27.5c0.8-6,2.6-11.9,4.5-17.7c0.5-1.6,3.2-3.6,4.7-3.4
	c1.5,0.2,2.9,2.7,3.9,4.4c0.8,1.5,0.9,3.3,1.4,5.2c1-0.5,1.6-0.6,1.8-0.9c1.7-3.5-0.8-10.6-4.3-12.4c-3.6-1.8-8.7,0.3-10.2,5
	c-1.9,5.9-3.1,12.1-4.2,18.2c-2.1,12.2-2.6,24.3,3.4,35.8c2.1,4,5.7,5.5,9.7,5.8c3.9,0.3,6.1-2.8,6.6-5.9c1.1-6.7,1.4-13.5,1.8-20.3
	c0-0.8-2-2.4-3-2.4c-3,0.1-6.1,0.6-9,1.5c-0.9,0.3-1.4,2-2.8,4C217,85.1,220.6,84.7,225.1,84.3z M260.3,105.9
	c-2-0.1-3.3-0.3-4.6-0.2c-4.4,0.5-8.8,1-13.1,1.8c-3,0.6-4.3-0.4-4.3-3.4c-0.1-5-0.2-10.1-0.5-15.1c-0.3-3.7,1.1-5.1,4.8-5.5
	c2.2-0.3,4.2-1.9,6.3-2.9c-2.2-0.4-4.4-1.2-6.5-1c-3.5,0.3-5-0.7-4.9-4.4c0.1-5.2-0.6-10.3-0.7-15.5c-0.1-7.4,0.2-7.7,7.5-9.1
	c1.5-0.3,3.1-0.2,4.5-0.9c1.2-0.5,2-1.8,3-2.8c-1.2-0.5-2.5-1.5-3.6-1.4c-3.3,0.4-6.6,1.2-9.9,1.8c-3.3,0.6-4.9,2.1-4.7,5.9
	c0.7,12.2,1,24.4,1.5,36.6c0.3,7.3,0.6,14.5,0.9,21.7c7.8-0.8,15.1-1.5,22.5-2.5C259.2,109,259.5,107.5,260.3,105.9z M63.4,58.1
	c1.7-4.3-0.7-9-5.6-11.6c-2.7-1.5-5-0.9-6.9,1.4c-4.6,5.5-4.9,10.6-1.2,16.8c3,5,6.1,9.9,8.6,15.1c2.6,5.6,4.6,11.6,6.6,17.5
	c0.9,2.7,0.2,5.1-3,6.1c-5.5,1.6-11-0.8-13.5-6c-0.4-0.8-1.3-1.4-2.8-2.8c-0.3,2.3-0.7,3.6-0.5,4.8c0.8,5.1,5.7,8.1,13.1,8.3
	c5.2,0.1,8.7-2.5,9.7-7.6c0.3-1.7,0.2-3.7-0.2-5.4c-2.1-11.1-7.8-20.7-13.5-30.3c-1.5-2.6-3.1-5.4-3.4-8.3c-0.2-1.8,1.5-4.2,3-5.6
	c0.6-0.5,3.4,0.6,4.5,1.6C60.1,53.5,61.5,55.7,63.4,58.1z M141.4,95.4c-3.4,5.3-2.1,11.5,1.8,14.2c3.2,2.3,8.3,2,11.5-0.8
	c3.6-3.2,5.8-7.4,5.1-12.2c-1.7-10.7-4.1-21.2-11.2-29.9c-2.5-3.1-4.3-6.5-2.7-10.5c0.6-1.5,1.9-3.8,3.1-3.9c1.6-0.2,3.7,1,5,2.3
	c1.5,1.5,2.4,3.7,3.6,5.9c1.9-4.6-0.5-9.9-5-11.7c-3.8-1.6-7.9,0.4-9.3,4.9c-1.7,5.5-1.3,11.1,2.7,15.5c6.3,7,8.2,15.8,10.5,24.4
	c0.6,2.4,0.9,5.1,0.6,7.6c-0.4,3.6-4.7,6.5-8.4,6.2c-4.4-0.4-5.8-3.3-6.1-7.2C142.3,98.6,141.8,97,141.4,95.4z M109,49.3
	c-0.5-0.1-0.9-0.2-1.4-0.3c-0.4,0.7-1.2,1.4-1.2,2.1c-0.2,3.2-0.6,6.4-0.4,9.6c0.9,12.1,1.7,24.3,3.2,36.4c0.4,3.4,2.6,6.9,4.6,9.8
	c2.4,3.3,5.6,3.2,7.9-0.2c1.8-2.6,3.6-5.6,3.9-8.6c1.2-15.2,2-30.4,2.8-45.6c0-0.8-0.6-1.5-0.9-2.3c-1.3,1.4-1.8,2.9-1.8,4.3
	c-0.1,9.6,0.1,19.3-0.4,28.9c-0.3,5.9-1.5,11.8-2.8,17.5c-0.4,1.7-2.5,3.6-4.2,4.1c-1,0.3-3-2-4-3.5c-1.1-1.6-1.9-3.6-2.1-5.5
	c-1.3-10.9-2.5-21.7-3.4-32.6C108.6,58.7,109,54,109,49.3z"/>
<path d="M98.6,108.9c-1-3.4-2.1-6.8-3.2-10.5c-4.8-0.2-9.5-0.3-14.1-0.5c-2.4-0.1-4.1,0.4-3.9,3.6c0.1,1.7-1.1,3.4-1.7,5.1
	c-0.4-0.1-0.8-0.2-1.2-0.3c0-1-0.2-1.9-0.1-2.9c2-15.4,4.1-30.8,6.2-46.2c0.3-2.4,1-4.8,2-7c0.5-1,2-1.6,3.1-2.3
	c0.6,1.1,1.6,2.1,1.9,3.3c3.1,12.5,6,24.9,9,37.4c1.3,5.2,2.9,10.3,4.1,15.5c0.4,1.5-0.1,3.2-0.1,4.8
	C99.9,108.8,99.3,108.8,98.6,108.9z M94.4,94c-3.3-12.8-6.3-24.6-9.3-36.5c-0.7,0-1.3,0.1-2,0.1c-1.5,11.9-3.1,23.8-4.7,36.1
	C84,93.8,88.6,93.9,94.4,94z"/>
<path d="M194.9,110.7c-0.4-0.8-0.9-1.5-1.2-2.3c-2.4-6.5-2.4-6.5-9.3-6.1c-1.4,0.1-2.7,0.4-4.1,0.3c-4.9-0.2-10-0.9-9.9,6.5
	c0,0.8-0.6,1.7-1.7,2.1c1.4-20.5,3.8-40.6,8.4-60.3c0.5,0,1,0,1.6,0.1c2.3,6.5,4.6,13,6.8,19.6c3.7,11.4,7.3,22.9,10.8,34.4
	c0.5,1.7,0.1,3.7,0.1,5.5C195.8,110.7,195.4,110.7,194.9,110.7z M190.5,97.8c-4.1-12.2-8-23.5-11.9-34.8c-0.6,0.1-1.3,0.1-1.9,0.2
	c-1.6,10.7-3.3,21.5-4.9,32.2c-0.4,2.7,1.6,3.4,3.8,3.3C180.2,98.4,184.7,98.1,190.5,97.8z"/>
<path d="M225.1,84.3c-4.5,0.5-8,0.8-12.9,1.4c1.3-2,1.8-3.8,2.8-4c2.9-0.8,6-1.4,9-1.5c1,0,3.1,1.6,3,2.4
	c-0.3,6.8-0.7,13.6-1.8,20.3c-0.5,3.1-2.7,6.2-6.6,5.9c-4-0.3-7.7-1.8-9.7-5.8c-6-11.5-5.4-23.6-3.4-35.8c1-6.1,2.3-12.3,4.2-18.2
	c1.5-4.8,6.7-6.8,10.2-5c3.5,1.8,6,8.9,4.3,12.4c-0.2,0.3-0.8,0.4-1.8,0.9c-0.5-1.9-0.6-3.7-1.4-5.2c-1-1.7-2.4-4.2-3.9-4.4
	c-1.5-0.2-4.1,1.8-4.7,3.4c-1.9,5.8-3.7,11.7-4.5,17.7c-1.2,9.2-1.7,18.7,1.9,27.5c1.2,2.9,3.6,5.8,6.2,7.5c3.7,2.5,7.1,0.9,7.8-3.5
	C224.7,95.1,224.7,89.9,225.1,84.3z"/>
<path d="M260.3,105.9c-0.8,1.6-1.2,3.1-1.7,3.2c-7.3,0.9-14.7,1.6-22.5,2.5c-0.3-7.2-0.6-14.4-0.9-21.7c-0.5-12.2-0.8-24.4-1.5-36.6
	c-0.2-3.8,1.4-5.3,4.7-5.9c3.3-0.6,6.6-1.5,9.9-1.8c1.1-0.1,2.4,0.9,3.6,1.4c-1,0.9-1.8,2.2-3,2.8c-1.3,0.6-3,0.6-4.5,0.9
	c-7.3,1.4-7.6,1.7-7.5,9.1c0.1,5.2,0.8,10.3,0.7,15.5c0,3.8,1.4,4.7,4.9,4.4c2.1-0.2,4.3,0.6,6.5,1c-2.1,1-4.1,2.7-6.3,2.9
	c-3.6,0.4-5,1.9-4.8,5.5c0.4,5,0.4,10,0.5,15.1c0,3,1.3,4,4.3,3.4c4.3-0.8,8.7-1.3,13.1-1.8C257.1,105.6,258.4,105.8,260.3,105.9z"
	/>
<path d="M63.4,58.1c-1.9-2.3-3.2-4.6-5.1-6.2c-1.2-1-4-2.1-4.5-1.6c-1.5,1.4-3.2,3.8-3,5.6c0.3,2.9,1.9,5.7,3.4,8.3
	c5.7,9.6,11.3,19.2,13.5,30.3c0.3,1.8,0.5,3.7,0.2,5.4c-1,5.1-4.5,7.8-9.7,7.6c-7.4-0.2-12.3-3.2-13.1-8.3c-0.2-1.2,0.2-2.5,0.5-4.8
	c1.5,1.5,2.4,2,2.8,2.8c2.5,5.2,8,7.7,13.5,6c3.3-1,4-3.3,3-6.1c-2-5.9-3.9-11.9-6.6-17.5c-2.4-5.2-5.6-10.1-8.6-15.1
	c-3.7-6.2-3.4-11.4,1.2-16.8c1.9-2.3,4.2-2.8,6.9-1.4C62.6,49.1,65.1,53.8,63.4,58.1z"/>
<path d="M141.4,95.4c0.4,1.6,0.9,3.2,1,4.8c0.3,3.9,1.7,6.8,6.1,7.2c3.7,0.3,8-2.6,8.4-6.2c0.3-2.5,0-5.2-0.6-7.6
	c-2.3-8.7-4.2-17.4-10.5-24.4c-4-4.4-4.4-10-2.7-15.5c1.4-4.5,5.5-6.4,9.3-4.9c4.5,1.8,6.9,7.2,5,11.7c-1.3-2.2-2.1-4.4-3.6-5.9
	c-1.3-1.3-3.4-2.5-5-2.3c-1.2,0.1-2.5,2.3-3.1,3.9c-1.6,4,0.2,7.4,2.7,10.5c7.2,8.7,9.6,19.2,11.2,29.9c0.8,4.8-1.4,9-5.1,12.2
	c-3.1,2.8-8.3,3.1-11.5,0.8C139.3,106.8,138,100.7,141.4,95.4z"/>
<path d="M109,49.3c-0.1,4.7-0.5,9.4-0.1,14c0.9,10.9,2.1,21.8,3.4,32.6c0.2,1.9,1.1,3.9,2.1,5.5c1,1.5,3,3.7,4,3.5
	c1.7-0.5,3.8-2.4,4.2-4.1c1.3-5.8,2.5-11.7,2.8-17.5c0.5-9.6,0.2-19.2,0.4-28.9c0-1.5,0.5-2.9,1.8-4.3c0.3,0.8,0.9,1.6,0.9,2.3
	c-0.9,15.2-1.6,30.4-2.8,45.6c-0.2,3-2.1,6-3.9,8.6c-2.3,3.4-5.5,3.5-7.9,0.2c-2.1-2.9-4.2-6.3-4.6-9.8c-1.5-12.1-2.3-24.2-3.2-36.4
	c-0.2-3.2,0.1-6.4,0.4-9.6c0.1-0.7,0.8-1.4,1.2-2.1C108.1,49.1,108.6,49.2,109,49.3z"/>
<path class="st0" d="M94.4,94c-5.8-0.1-10.4-0.2-16-0.3c1.6-12.3,3.1-24.2,4.7-36.1c0.7,0,1.3-0.1,2-0.1
	C88.1,69.3,91.1,81.2,94.4,94z"/>
<path class="st0" d="M190.5,97.8c-5.8,0.3-10.3,0.6-14.9,0.8c-2.2,0.1-4.2-0.6-3.8-3.3c1.6-10.7,3.3-21.5,4.9-32.2
	c0.6-0.1,1.3-0.1,1.9-0.2C182.5,74.3,186.4,85.6,190.5,97.8z"/>
</svg>
