<?xml version="1.0" encoding="utf-8"?>
<!-- Generator: Adobe Illustrator 22.1.0, SVG Export Plug-In . SVG Version: 6.00 Build 0)  -->
<svg version="1.1" id="Layer_1" xmlns="http://www.w3.org/2000/svg" xmlns:xlink="http://www.w3.org/1999/xlink" x="0px" y="0px"
	 viewBox="0 0 307 154" style="enable-background:new 0 0 307 154;" xml:space="preserve">
<style type="text/css">
	.st0{fill:#F7CB5F;}
</style>
<g>
	<path d="M199.1,137c-5.3,5.2-9.9,9.7-15,14.8c-2.9-4.8-5.5-9-8.1-13.4c-5.8,4.9-11.1,9.5-17.2,14.8c-1.7-6-3.1-10.6-4.5-15.6
		c-6.7,5.4-13,10.5-19.6,15.8c-2.3-6.2-4.3-11.6-6.4-17.4c-5.9,4.8-11.1,9.1-16.8,13.8c-2.4-5.5-4.3-10.1-6.5-15.1
		c-6,5.2-11.5,9.9-17.8,15.4c-1.6-5.5-2.9-9.6-4.3-14.3c-4.9,4.2-9.2,7.8-14,11.8c-1.7-3.1-3.1-5.6-4.3-8.2
		c-1.6-3.4-3.6-4.6-7.3-2.6c-3.5,1.9-7.2,3.2-11.7,5.1c0.3-5.5,0.5-10.2,0.7-15.3c-8.3,3-15.9,5.7-23.5,8.4
		c-0.4-0.3-0.8-0.6-1.2-0.9c0.9-2.7,1.6-5.4,2.7-8c4-9.6,4.1-9.6-6-11.7c-4.2-0.9-8.2-2-12.4-3c-0.1-0.5-0.2-0.9-0.3-1.4
		c4.2-2.8,8.3-5.5,12.9-8.6c-5.7-3.2-10.7-6-15.8-8.8c0-0.5-0.1-1-0.1-1.5c4.6-2.4,9.2-4.7,14.1-7.2C10.6,77.8,5.1,72-0.4,66.1
		c0.2-0.5,0.3-0.9,0.5-1.4c4.3-0.6,8.5-1.3,13.2-1.9C9.7,57.5,6.4,52.5,3,47.5c0.3-0.4,0.6-0.8,0.9-1.2c4.5,0.2,9,0.5,14,0.8
		c-0.6-5.8-1.1-11.2-1.8-17.7c5.4,3,9.7,5.3,15.1,8.3c0.6-7.3,1.1-13.8,1.7-21.4c4,2.9,7.3,5.2,10.5,7.7c3,2.3,4.7,2.2,6.1-1.7
		c1.7-4.5,4-8.8,6.5-14.2c3.2,5.7,5.7,10.2,8.7,15.5c3-5,5.7-9.5,9-14.9c2.4,3.9,4.2,6.8,6.5,10.5c3-4.8,5.8-9.2,9.1-14.4
		c2.6,5.5,4.8,10.1,7.6,15.8c3.8-6.9,7.2-12.8,10.5-18.8c0.5-0.1,0.9-0.1,1.4-0.2c1.9,5.4,3.7,10.8,5.9,17
		c4.8-6.1,9.1-11.5,14.1-17.9c2.6,6.6,5,12.4,7.6,19.1c3.7-4.6,7.1-8.9,10.7-13.4c1.8,5,3.4,9.6,5.4,15.3
		c4.8-5.6,8.8-10.3,13.7-16.1c0.8,3.9,1.3,6.6,2,9.3c0.8,2.7,1.8,5.4,3,8.9c5.7-5.6,10.4-10.3,16-15.9c0.6,5.5,1.1,10,1.8,15.7
		c5.8-5.4,10.4-9.8,15.4-14.5c2.5,5.9,4.6,10.8,6.9,16.4c5.5-5.1,10.2-9.5,15.8-14.8c1,5.2,1.8,9.3,2.7,14
		c6.5-5.4,12.7-10.4,19.2-15.8c1,7.5,1.8,14,2.8,21.5c6.2-3.7,11.3-6.6,17.5-10.3c-0.3,5.2-0.6,9.3-0.9,13.8
		c5.9-1.2,11.6-2.3,17.3-3.4c0.4,0.4,0.8,0.8,1.1,1.2c-1.6,3.1-3.1,6.4-4.8,9.4c-2.6,4.5-2.6,4.6,2.1,6.6c5.1,2.2,10.2,4.4,15.4,6.7
		c0,0.5,0.1,0.9,0.1,1.4c-5,2.7-10,5.3-15.2,8.1c5.7,4,11,7.7,17.3,12.1c-4.8,1.8-8.3,3.1-12.6,4.6c5.4,4.1,10.2,7.8,16.1,12.3
		c-5.7,2.1-10.4,3.9-15.6,5.9c5.5,4.9,10.5,9.3,16.6,14.8c-6.3,1.4-11.3,2.5-16.9,3.7c1.7,5.5,3.3,10.9,5,16.2
		c-0.4,0.4-0.7,0.7-1.1,1.1c-4.6-2.3-9.3-4.6-14-7c-2.1,6.2-4,12.2-6.4,19.3c-3.4-5.4-6.1-9.6-9-14.1c-4.2,6.9-8.1,13.2-12.2,20
		c-3.9-5.4-7.1-9.8-10.7-14.8c-4.8,5.5-9,10.2-13.4,15.2c-2.7-5.1-5.1-9.5-7.7-14.2c-5.3,5-9.9,9.4-15.3,14.4
		C202.7,147.3,200.9,142.4,199.1,137z M184.3,13c-4.9,5.4-9.2,10.2-14.4,15.9c-2-6.3-3.8-11.7-5.8-18c-4.2,5.4-8,10.2-12.5,15.8
		c-2.4-5.4-4.2-9.7-6.6-15.2c-2.9,4.9-5.2,9-7.7,12.9c-0.6,1-2,1.5-3.9,2.9c1.3-8.7-2.1-14.5-5.4-21.3c-4.8,6.3-9.2,11.9-14.2,18.4
		c-2-6.5-3.7-12-5.7-18.4c-4,7-7.4,12.9-11.3,19.7c-2.8-5.8-5.1-10.4-7.7-15.8c-3.1,5.4-5.7,9.9-8.6,14.9c-2.3-4.1-4.1-7.4-6.5-11.7
		c-3.2,5.7-5.8,10.5-8.9,16c-3-5.3-5.6-10-8.9-15.8c-2.5,6.5-4.5,11.9-6.8,17.8c-4.7-3.2-9-6.1-14.2-9.6c-0.6,7-1.2,13.1-1.8,20.1
		c-4.8-2.4-8.9-4.5-13.9-7c1,5.6,1.7,10.2,2.6,15.1c-5.2-0.2-9.7-0.4-14.1-0.7c-0.2,0.4-0.4,0.8-0.6,1.1c3.8,4.6,7.6,9.3,11.8,14.5
		c-5.1,0.8-9.9,1.5-15.9,2.5c3.7,3.4,6.4,6,9.3,8.5c2.9,2.6,6,5,9.6,7.9c-5.4,2.8-10.1,5.3-16.1,8.4c6.4,3,11.7,5.5,17.9,8.4
		c-4.5,3.2-8.5,6.1-12.5,9c0.1,0.5,0.2,0.9,0.2,1.4c6.1,0.8,12.2,1.6,19.2,2.6c-1.8,5.7-3.5,11.2-5.7,18.2
		c8.7-3.5,16.2-6.5,24.2-9.7c-0.2,5.2-0.4,10.1-0.7,15.9c5.5-2.4,10.2-4.5,14.9-6.7c2.2,4.1,4.3,7.9,6.5,12.1c4.8-4.2,9-7.9,14-12.3
		c1.7,5.2,3,9.3,4.8,14.8c5.7-5.5,10.7-10.3,16.6-16c2.5,5.2,4.8,10.1,7.5,15.8c5.3-4.7,10.4-9.1,16.2-14.3
		c2.4,5.9,4.6,11.5,7.2,17.9c6.3-5.6,12.3-11,19-16.9c1.6,5.3,3.2,10.4,5,16.5c4.8-4.4,8.9-8,12.7-11.8c3.4-3.3,4.3-3.3,6.7,1
		c1.7,2.9,3.2,5.9,5.2,9.6c5.1-5.2,9.7-9.8,14.8-15.1c1.2,2.8,2.4,5.3,3.4,7.8c1,2.6,1.7,5.2,2.6,7.8c0.5,0.2,1.1,0.4,1.6,0.5
		c4.2-4.8,8.4-9.5,13-14.8c2.9,4.9,5.6,9.4,8.8,14.8c3-3.9,5.9-7.4,8.5-11c3-4.2,3.6-4.3,6.7-0.2c2.5,3.2,4.8,6.6,7.7,10.7
		c4-7.2,7.6-13.5,11.5-20.5c3,4.3,5.7,8.1,8.3,11.9c0.4,0,0.8,0,1.3,0c0.8-4.1,1.7-8.2,2.3-12.4c0.6-4,1.2-4.4,4.7-2.4
		c3.1,1.8,6.1,3.6,9.2,5.4c0.3-0.3,0.6-0.7,0.9-1c-1.6-3.5-3.1-7-4.6-10.5c-1.2-2.8-0.8-4,2.7-4c3.9,0,7.9-1,11.8-1.5
		c0-0.5,0.1-1,0.1-1.5c-5-4.3-10.1-8.5-15.8-13.4c5.5-2,10.3-3.7,16.1-5.8c-5.7-4.1-10.6-7.7-16.6-12c4.4-1.9,8-3.4,12.6-5.3
		C290.4,71,285,67.6,279,63.8c5.5-2.9,10.4-5.6,15.4-8.2c-0.1-0.5-0.1-1-0.2-1.6c-4.5-1.4-8.9-3-13.5-4.1c-4.8-1.2-4.9-1.4-2.3-5.8
		c1.8-3,3.4-6.1,5.1-9.1c-0.3-0.4-0.5-0.8-0.8-1.3c-5.7,1.4-11.5,2.8-17.5,4.3c0.4-4.4,0.8-8.3,1.2-13.5c-4.7,2.9-8.1,4.9-11.4,7.1
		c-4.2,2.8-5.2,2.6-6.1-2.3c-0.9-4.7-1.4-9.6-2.3-15.8c-6.4,5.8-12.1,10.9-18.4,16.6c-1-5-1.9-9.3-2.7-13.6c-0.5-0.3-1-0.7-1.5-1
		c-4.2,4.9-8.3,9.7-13.3,15.5c-2.8-6.2-5.2-11.4-7.5-16.5c-0.5-0.4-1-0.8-1.6-1.3c-4.2,4.7-8.4,9.3-13.4,15
		C186.9,23.5,185.8,19.1,184.3,13z"/>
	<path class="st0" d="M184.3,13c1.5,6.1,2.6,10.5,3.8,15.2c5.1-5.6,9.2-10.3,13.4-15c0.5,0.4,1,0.8,1.6,1.3
		c2.3,5.1,4.7,10.3,7.5,16.5c5-5.8,9.1-10.7,13.3-15.5c0.5,0.3,1,0.7,1.5,1c0.9,4.3,1.7,8.6,2.7,13.6c6.3-5.7,12-10.8,18.4-16.6
		c0.9,6.2,1.4,11,2.3,15.8c1,4.9,1.9,5.1,6.1,2.3c3.3-2.2,6.8-4.2,11.4-7.1c-0.5,5.2-0.8,9.1-1.2,13.5c6.1-1.5,11.8-2.9,17.5-4.3
		c0.3,0.4,0.5,0.8,0.8,1.3c-1.7,3-3.3,6.1-5.1,9.1c-2.6,4.3-2.5,4.5,2.3,5.8c4.5,1.2,9,2.7,13.5,4.1c0.1,0.5,0.1,1,0.2,1.6
		c-4.9,2.6-9.9,5.3-15.4,8.2c5.9,3.8,11.4,7.2,17.5,11.1c-4.6,1.9-8.1,3.4-12.6,5.3c5.9,4.3,10.9,7.9,16.6,12
		c-5.9,2.1-10.7,3.8-16.1,5.8c5.8,4.9,10.8,9.2,15.8,13.4c0,0.5-0.1,1-0.1,1.5c-3.9,0.5-7.9,1.5-11.8,1.5c-3.6,0-4,1.2-2.7,4
		c1.5,3.5,3.1,7,4.6,10.5c-0.3,0.3-0.6,0.7-0.9,1c-3.1-1.8-6.2-3.6-9.2-5.4c-3.4-2-4.1-1.6-4.7,2.4c-0.6,4.2-1.5,8.3-2.3,12.4
		c-0.4,0-0.8,0-1.3,0c-2.6-3.8-5.3-7.6-8.3-11.9c-4,7.1-7.5,13.4-11.5,20.5c-2.9-4.1-5.3-7.5-7.7-10.7c-3.1-4-3.7-3.9-6.7,0.2
		c-2.6,3.7-5.5,7.2-8.5,11c-3.2-5.4-5.9-9.9-8.8-14.8c-4.6,5.3-8.8,10-13,14.8c-0.5-0.2-1.1-0.4-1.6-0.5c-0.8-2.6-1.6-5.3-2.6-7.8
		c-1-2.5-2.2-5-3.4-7.8c-5.1,5.2-9.7,9.8-14.8,15.1c-2-3.7-3.5-6.7-5.2-9.6c-2.4-4.3-3.3-4.3-6.7-1c-3.9,3.8-8,7.4-12.7,11.8
		c-1.9-6.1-3.4-11.1-5-16.5c-6.7,6-12.7,11.3-19,16.9c-2.6-6.4-4.8-11.9-7.2-17.9c-5.8,5.1-10.9,9.6-16.2,14.3
		c-2.7-5.7-5-10.6-7.5-15.8c-5.8,5.6-10.9,10.5-16.6,16c-1.8-5.4-3.1-9.6-4.8-14.8c-4.9,4.3-9.2,8.1-14,12.3
		c-2.2-4.2-4.3-8-6.5-12.1c-4.8,2.1-9.4,4.2-14.9,6.7c0.3-5.8,0.5-10.7,0.7-15.9c-8,3.2-15.5,6.2-24.2,9.7c2.2-7,3.9-12.5,5.7-18.2
		c-7.1-0.9-13.1-1.8-19.2-2.6c-0.1-0.5-0.2-0.9-0.2-1.4c4-2.9,8-5.8,12.5-9c-6.3-2.9-11.5-5.4-17.9-8.4c6-3.2,10.7-5.6,16.1-8.4
		c-3.6-2.9-6.6-5.4-9.6-7.9c-2.9-2.5-5.6-5.1-9.3-8.5c6-0.9,10.7-1.7,15.9-2.5c-4.3-5.2-8.1-9.9-11.8-14.5c0.2-0.4,0.4-0.8,0.6-1.1
		c4.5,0.2,8.9,0.4,14.1,0.7c-0.8-4.9-1.6-9.4-2.6-15.1c5,2.5,9.1,4.5,13.9,7c0.6-6.9,1.1-13,1.8-20.1c5.1,3.5,9.4,6.4,14.2,9.6
		c2.3-5.9,4.3-11.3,6.8-17.8c3.3,5.8,5.9,10.5,8.9,15.8c3-5.5,5.7-10.3,8.9-16c2.4,4.3,4.2,7.6,6.5,11.7c2.9-5,5.5-9.5,8.6-14.9
		c2.7,5.5,4.9,10,7.7,15.8c3.9-6.8,7.3-12.8,11.3-19.7c2,6.4,3.7,11.9,5.7,18.4c5-6.5,9.4-12.1,14.2-18.4c3.3,6.8,6.7,12.6,5.4,21.3
		c1.9-1.4,3.3-1.9,3.9-2.9c2.5-3.9,4.8-8,7.7-12.9c2.4,5.5,4.2,9.8,6.6,15.2c4.5-5.7,8.3-10.5,12.5-15.8c2,6.3,3.8,11.7,5.8,18
		C175.1,23.2,179.4,18.4,184.3,13z M83.6,47.9c-5.3,1.6-4.9,5.8-5.3,9c-1.6,13.9-2.8,27.8-4,41.7c-0.2,2.8,0.1,5.7,0.1,8.8
		c3.8-0.9,3.1-3.8,2.8-6.1c-0.5-4.4,1.1-6,5.5-5.4c2.6,0.4,5.4,0.4,8,0.2c3.5-0.3,5,1.3,5.7,4.6c0.6,2.9,1.8,5.6,2.7,8.4
		c0.5-0.1,1.1-0.2,1.6-0.3c0-1.8,0.3-3.6-0.2-5.3c-3.9-13.1-7.9-26.1-11.9-39.2C87,58.9,85.3,53.6,83.6,47.9z M224.9,82.6
		c-4.3,0.9-7.7,1.4-10.9,2.5c-1.2,0.4-2,2.2-3,3.4c1.3,0.4,2.6,1.2,3.8,1.2c2.6-0.2,5.1-0.8,8.8-1.5c-0.6,5.8-0.7,11.1-1.7,16.3
		c-0.7,3.7-3.6,6.3-7.6,6.5c-4.1,0.2-5.6-3-6.3-6.3c-0.9-4.2-2.2-8.5-2.1-12.7c0.3-10.3,0.7-20.7,2.2-31c0.9-6,4.9-6.8,9.1-2.4
		c2.9,3,5.1,6.8,8,10.8c0.5-1.1,1.5-2.4,1.2-3c-2.5-5.6-5.5-11-11.5-13.6c-3.8-1.7-7.5-0.4-8.5,3.6c-1.5,5.8-2.5,11.9-3.1,17.9
		c-1.1,11.3-1.4,22.5,2.1,33.5c2.5,8,9.5,10,14.8,3.6C227.3,103.1,225.5,92.9,224.9,82.6z M238.4,90.1c3-0.3,5.8-0.3,8.5-0.9
		c1-0.2,1.8-1.9,2.6-2.9c-1-0.4-2.1-1.1-3.1-1.2c-1.8-0.1-3.7,0.5-5.3,0c-1.3-0.4-3.1-2-3.2-3.1c-0.4-5.7-0.2-11.5-0.3-17.2
		c0-2.9,1.5-4,4.2-3.6c4,0.5,7.9,1.1,11.9,1.5c2.9,0.3,4.5-0.7,3.7-4c-5.9-0.6-11.6-1.3-17.4-1.9c-3.3-0.3-5.3,0.7-5.2,4.7
		c0.2,4.4-0.5,8.9-0.4,13.3c0.2,13.2,0.5,26.4,0.7,39.6c0,2.6,1,3.5,3.5,3.1c5.4-0.8,10.9-1.5,16.3-2.5c1.2-0.2,2.2-1.7,3.3-2.6
		c-0.2-0.5-0.4-1-0.6-1.6c-6.1,0.6-12.3,1.3-18.8,2C238.6,105,238.5,97.6,238.4,90.1z M194.6,112.9c1.9-3.7-9.1-54.5-12.6-59.9
		c-7.2,8.6-5.3,19.2-7.4,28.7c-2.1,9.8-3.8,19.7-5.7,29.5c0.4,0.1,0.8,0.2,1.3,0.3c0.6-0.9,1.4-1.8,1.7-2.9c2-6.6,2-6.6,8.9-6.5
		c1,0,2.1-0.1,3.1-0.1c7.3-0.2,7.3-0.2,9.2,7C193.3,110.1,193.9,111.1,194.6,112.9z M109,50.6c-0.5,0.1-1,0.1-1.6,0.2
		c-0.2,1.1-0.5,2.2-0.5,3.3c0.1,5.9-0.1,11.9,0.4,17.8c0.9,9.9,2.1,19.8,3.8,29.6c0.7,4,2.8,8.6,7.6,8.7c4.9,0.1,7.5-4.2,9.7-8.2
		c0.5-0.9,0.7-2,0.9-3c0.7-3.9,1.7-7.9,1.9-11.9c0.5-10.5,0.6-21.1,0.7-31.6c0-0.9-0.6-1.8-0.9-2.7c-1.2,1.2-1.6,2.3-1.6,3.5
		c-0.1,7,0.3,14-0.1,20.9c-0.4,7.1-0.9,14.3-2.6,21.1c-0.8,2.9-4.9,5-7.4,7.5c-1.8-2.5-3.7-5-5.5-7.6c-0.5-0.7-0.5-1.7-0.6-2.6
		c-1.1-13.6-2.2-27.1-3.3-40.7C109.6,53.5,109.2,52,109,50.6z M62.3,58.1c0.4-0.1,0.9-0.1,1.3-0.2c1.3-4.1-1-7.3-3.1-10.5
		c-1.9-2.9-4.9-3.8-8.2-2.9c-3.6,1-4.5,4-4,7.1c0.9,5.4,1.8,10.8,3.7,15.9c2.3,6.1,5.6,11.8,8.4,17.7c2.2,4.7,2.8,9.6,0.2,14.2
		c-1.3,2.3-4.5,5.6-6,5.3c-2.8-0.7-5.1-3.7-7.5-5.9c-0.9-0.8-1.4-2.1-2.4-3.5c-2.3,5.9,0,10,6.2,12.8c4.5,2.1,8.1,0.7,10.5-4.2
		c4.4-9,4.2-17.7-0.7-26.8c-3.9-7.4-6.5-15.5-9.3-23.5c-0.5-1.5,0.9-3.6,1.4-5.4c2,1,4.4,1.5,5.8,3C60.5,53,61.2,55.8,62.3,58.1z
		 M143.3,100.7c-3,4.5-3,8.1,0.4,10c6.7,3.6,12.4,6.2,15.8,1.7c0.3-0.4,0.6-0.7,0.8-1.1c1.5-5.1,3.7-10.1,4.2-15.3
		c1-10-3-18.6-9.8-25.9c-3.1-3.3-4.1-7.1-3.2-11.5c0.6-2.7,2.3-4.2,4.8-2.6c2.1,1.3,3.6,3.5,5.2,5.4c0.6,0.7,0.8,1.8,1.5,3.5
		c2-7-0.8-11.7-7.4-12.8c-1.8-0.3-4.7,1-5.8,2.5c-2.8,3.7-1.8,12.9,1.1,16.5c2.1,2.7,4.4,5.2,6.2,8.1c5.1,8.1,6.4,16.8,3.4,26
		c-1.1,3.4-2.7,6.4-7.2,5.9c-4.7-0.5-7.6-3.1-8.5-7.3C144.8,102.7,144,101.8,143.3,100.7z"/>
	<path d="M83.6,47.9c1.8,5.7,3.5,11,5.1,16.4c4,13.1,8,26.1,11.9,39.2c0.5,1.6,0.1,3.5,0.2,5.3c-0.5,0.1-1.1,0.2-1.6,0.3
		c-0.9-2.8-2.1-5.5-2.7-8.4c-0.7-3.3-2.1-4.9-5.7-4.6c-2.7,0.2-5.4,0.2-8-0.2c-4.3-0.6-6,1-5.5,5.4c0.3,2.3,1,5.2-2.8,6.1
		c-0.1-3-0.4-5.9-0.1-8.8c1.2-13.9,2.4-27.8,4-41.7C78.6,53.7,78.2,49.5,83.6,47.9z M82.9,56.6c-0.8,0-1.6,0.1-2.4,0.1
		c-0.8,10.9-1.6,21.7-2.2,32.6c0,0.8,1.5,2.4,2.4,2.4c4.1,0.2,8.2,0,13.4-0.1C90.2,79.5,86.5,68,82.9,56.6z"/>
	<path d="M224.9,82.6c0.6,10.3,2.4,20.4-4.6,28.8c-5.3,6.4-12.3,4.3-14.8-3.6c-3.5-11-3.2-22.3-2.1-33.5c0.6-6,1.6-12,3.1-17.9
		c1-4,4.7-5.3,8.5-3.6c6,2.6,9,8,11.5,13.6c0.3,0.7-0.8,1.9-1.2,3c-2.9-4-5.1-7.8-8-10.8c-4.3-4.4-8.3-3.6-9.1,2.4
		c-1.5,10.2-1.9,20.6-2.2,31c-0.1,4.2,1.1,8.5,2.1,12.7c0.7,3.3,2.1,6.5,6.3,6.3c4-0.2,6.9-2.8,7.6-6.5c1-5.1,1.2-10.5,1.7-16.3
		c-3.7,0.7-6.2,1.3-8.8,1.5c-1.2,0.1-2.5-0.7-3.8-1.2c1-1.2,1.7-3,3-3.4C217.2,84,220.6,83.6,224.9,82.6z"/>
	<path d="M238.4,90.1c0.1,7.5,0.3,14.8,0.4,22.8c6.6-0.7,12.7-1.3,18.8-2c0.2,0.5,0.4,1,0.6,1.6c-1.1,0.9-2.1,2.4-3.3,2.6
		c-5.4,1-10.8,1.6-16.3,2.5c-2.5,0.4-3.4-0.4-3.5-3.1c-0.1-13.2-0.5-26.4-0.7-39.6c-0.1-4.4,0.6-8.9,0.4-13.3c-0.1-4,1.9-5,5.2-4.7
		c5.7,0.5,11.5,1.2,17.4,1.9c0.8,3.3-0.8,4.3-3.7,4c-4-0.5-7.9-1-11.9-1.5c-2.7-0.3-4.2,0.8-4.2,3.6c0.1,5.7-0.1,11.5,0.3,17.2
		c0.1,1.1,1.9,2.7,3.2,3.1c1.6,0.5,3.5-0.2,5.3,0c1.1,0.1,2.1,0.8,3.1,1.2c-0.9,1-1.6,2.6-2.6,2.9C244.2,89.8,241.4,89.8,238.4,90.1
		z"/>
	<path d="M194.6,112.9c-0.7-1.8-1.3-2.8-1.5-3.9c-1.9-7.1-1.8-7.1-9.2-7c-1,0-2.1,0.1-3.1,0.1c-6.9-0.1-6.8-0.1-8.9,6.5
		c-0.3,1-1.1,1.9-1.7,2.9c-0.4-0.1-0.8-0.2-1.3-0.3c1.9-9.8,3.6-19.7,5.7-29.5c2-9.5,0.2-20.1,7.4-28.7
		C185.5,58.5,196.5,109.3,194.6,112.9z M190.4,97.9c-3-12.5-5.8-24.1-8.6-35.7c-0.4,0-0.9,0.1-1.3,0.1c-2.1,11-4.2,22-6.1,33
		c-0.1,0.7,1.6,2.6,2.5,2.6C181,98.2,185.1,97.9,190.4,97.9z"/>
	<path d="M109,50.6c0.3,1.4,0.7,2.9,0.8,4.3c1.1,13.6,2.2,27.1,3.3,40.7c0.1,0.9,0.2,1.9,0.6,2.6c1.7,2.6,3.6,5.1,5.5,7.6
		c2.6-2.5,6.7-4.6,7.4-7.5c1.8-6.8,2.2-14,2.6-21.1c0.4-6.9,0-13.9,0.1-20.9c0-1.2,0.4-2.4,1.6-3.5c0.3,0.9,0.9,1.8,0.9,2.7
		c-0.2,10.5-0.3,21.1-0.7,31.6c-0.2,4-1.2,7.9-1.9,11.9c-0.2,1-0.4,2.1-0.9,3c-2.2,4-4.8,8.3-9.7,8.2c-4.8-0.1-6.9-4.7-7.6-8.7
		c-1.7-9.8-2.8-19.7-3.8-29.6c-0.6-5.9-0.4-11.9-0.4-17.8c0-1.1,0.3-2.2,0.5-3.3C107.9,50.7,108.5,50.7,109,50.6z"/>
	<path d="M62.3,58.1c-1.1-2.4-1.8-5.1-3.5-7c-1.3-1.5-3.8-2.1-5.8-3c-0.5,1.8-1.9,3.9-1.4,5.4c2.8,7.9,5.3,16.1,9.3,23.5
		c4.8,9.1,5.1,17.8,0.7,26.8c-2.4,4.9-6,6.3-10.5,4.2c-6.2-2.8-8.5-7-6.2-12.8c1,1.4,1.5,2.7,2.4,3.5c2.4,2.2,4.7,5.2,7.5,5.9
		c1.5,0.4,4.7-3,6-5.3c2.6-4.5,1.9-9.5-0.2-14.2c-2.8-5.9-6.1-11.6-8.4-17.7c-1.9-5.1-2.9-10.5-3.7-15.9c-0.5-3,0.4-6.1,4-7.1
		c3.3-0.9,6.3,0,8.2,2.9c2.1,3.2,4.4,6.5,3.1,10.5C63.2,58,62.7,58.1,62.3,58.1z"/>
	<path d="M143.3,100.7c0.6,1.2,1.5,2.1,1.7,3.1c0.9,4.2,3.8,6.7,8.5,7.3c4.5,0.5,6-2.5,7.2-5.9c3-9.2,1.7-17.9-3.4-26
		c-1.8-2.9-4.1-5.4-6.2-8.1c-2.9-3.6-3.9-12.8-1.1-16.5c1.1-1.5,4-2.8,5.8-2.5c6.5,1.1,9.3,5.8,7.4,12.8c-0.7-1.7-0.9-2.8-1.5-3.5
		c-1.6-1.9-3.2-4.1-5.2-5.4c-2.5-1.6-4.2-0.1-4.8,2.6c-1,4.4,0.1,8.2,3.2,11.5c6.8,7.3,10.8,15.8,9.8,25.9
		c-0.5,5.2-2.7,10.2-4.2,15.3c-0.1,0.4-0.5,0.7-0.8,1.1c-3.4,4.5-9,1.9-15.8-1.7C140.3,108.8,140.3,105.2,143.3,100.7z"/>
	<path class="st0" d="M82.9,56.6c3.7,11.5,7.3,22.9,11.2,35c-5.2,0.1-9.3,0.3-13.4,0.1c-0.9,0-2.4-1.6-2.4-2.4
		c0.6-10.9,1.4-21.7,2.2-32.6C81.3,56.6,82.1,56.6,82.9,56.6z"/>
	<path class="st0" d="M190.4,97.9c-5.2,0.1-9.4,0.3-13.5,0.1c-0.9-0.1-2.6-1.9-2.5-2.6c1.9-11,4-22,6.1-33c0.4,0,0.9-0.1,1.3-0.1
		C184.6,73.8,187.4,85.4,190.4,97.9z"/>
</g>
</svg>
