<?xml version="1.0" encoding="utf-8"?>
<!-- Generator: Adobe Illustrator 22.1.0, SVG Export Plug-In . SVG Version: 6.00 Build 0)  -->
<svg version="1.1" id="Layer_1" xmlns="http://www.w3.org/2000/svg" xmlns:xlink="http://www.w3.org/1999/xlink" x="0px" y="0px"
	 viewBox="0 0 680 300" style="enable-background:new 0 0 680 300;" xml:space="preserve">
<style type="text/css">
	.st0{fill:#F7CB5F;stroke:#000000;stroke-width:4;stroke-miterlimit:10;}
</style>
<path class="st0" d="M161.4,236.7c2.5-8.4,3.7-16,2.8-23.8c-0.2-1.4,0.2-2.9,0.3-4.4c1.6,0.3,3.8,0,4.7,1c2.3,2.2,4.4,4.9,6,7.7
	c4,7.1,6.3,7.7,12.9,2.7c2.3-1.8,5-3.4,6.7-5.8c6.7-9.6,12.3-4.8,16,2c1.3,2.4,2.5,5,3.9,7.4c0.8,1.3,2,2.4,3.9,4.6
	c1.9-6.8,3.3-12.3,5.1-17.7c2.5-8,9.2-10.1,15.8-5c2.7,2.1,4.9,4.9,7.3,7.4c1.4,1.3,2.8,2.6,5.1,4.6c0.2-3.9,0.4-6.5,0.5-9.1
	c0.2-3.7-0.7-8.1,3.9-9.9c4.5-1.7,8,1,11.3,3.7c1.2,1,2.1,2.3,3.1,3.5c3.6,4.6,7.1,9.2,11.3,14.6c4.1-10.6,4.4-20.7,3.9-31.5
	c14.3,4,20,15.8,27.8,26.7c3.1-9.8-1.1-17.7-3.2-27.3c12.2,4.8,21,12.8,32.2,18.9c0.6-7.4,1.3-13.7,1.6-20.1c0.1-4,1.6-4.7,5.2-3.7
	c7.5,2.1,12.3,7,14.7,14.2c1.5,4.3,2.7,8.6,4.2,12.9c0.7,2,1.9,3.8,3.3,6.7c5.6-9.2,5.5-18.1,4.1-27.8c12.3,3.6,9.4,15.6,15,23
	c3-4.3,5.6-8.3,8.4-12c2.3-3,4.2-6.7,9-6c4.5,0.7,5.8,4.4,7.3,8c1.2,2.9,2.6,5.7,4.5,9.5c2.4-3.7,3.7-6.4,5.7-8.5
	c1.5-1.7,3.7-2.8,5.6-4.1c1.2,1.9,3.1,3.6,3.6,5.7c2.1,7.6,4.6,14.8,11,22c0.6-4.7,1.3-8.2,1.3-11.7c-0.1-8.6,1.9-10,9.9-6.4
	c1.4,0.6,2.7,1.6,3.9,2.5c4.9,3.9,9.9,7.7,14.6,11.7c4.1,3.5,8.1,3.2,12.4,0.4c3.4-2.2,5.5-1.2,5.6,3c0.1,2.9-0.4,5.8-0.6,9
	c1.1-0.2,1.8-0.2,2.4-0.4c6.5-2.4,13-5.2,19.6-7c2.6-0.7,5.9,0.6,8.8,1c-0.6,2.6-1,5.2-1.9,7.7c-1.9,5.6-4,11.1-6.5,17.9
	c2.7-0.6,3.6-0.5,4.3-0.9c3.4-2,6.7-4.4,10.2-6.2c3.8-2,7.7-4.1,11.9-5.2c6.3-1.6,9,1,8.2,7.4c-0.5,4.3-1.6,8.5-2.3,12.8
	c-0.4,2.4-0.5,4.9-0.8,8c6.2-2.7,11.3-4.9,16.4-7c4.9-2.1,7.3-1.1,9.4,3.8c0.7,1.6,1.1,3.3,1.7,4.9c2,5,4,10,6.3,15.8
	c6.9-6.7,13.8-11.7,13.2-21.6c0.5-0.3,1-0.5,1.5-0.8c7.2,4.9,14.3,9.7,21.9,14.8c5-9.3,3.9-18.3-1.2-27.3c0.8-0.3,1.5-0.6,2.3-0.8
	c2.6,3,5.1,6.1,7.2,8.5c2.9-6.6,5.7-13.2,8.6-19.7c3.3-7.5,9-11.6,19.2-10.4c-3-3.4-4.5-5.7-6.5-7.1c-6.5-4.5-7.1-5.4,0.6-11.9
	c1.5-1.2,2.9-2.5,4.4-3.7c4.8-4.2,9.6-8.3,14.9-12.9c-2.5-1.4-4.3-2.4-6.1-3.3c-4.2-2-5.5-4.7-2.3-8.6c3-3.6,5.9-7.3,9-10.8
	c1.8-2.1,3.9-4.1,7.2-7.4c-6.5-1.1-11.3-2.1-16.2-2.7c-6.5-0.8-7.1-2.1-4.3-7.8c3.1-6.6,6.3-13.2,8.6-20c1.9-5.6,0.2-6.9-5.6-5.7
	c-5.6,1.1-11.2,2.4-16.8,3.3c-3.7,0.6-5-1.2-4.1-5c1-4,1.7-8.2,2.3-12.3c0.6-3.4-0.9-5.3-4.4-3.8c-3.6,1.6-7,3.7-10.4,5.7
	c-2.7,1.6-5.1,3.6-7.9,4.9c-3.3,1.5-5,0.4-4.4-3.5c1-6.9,1.8-13.8,2.6-20.7c0.3-2.5,0.3-5,0.5-8.6c-2.7,1.1-4.8,1.4-5.9,2.6
	c-5.4,5.5-10.6,11.3-15.9,16.9c-1.3,1.4-3.6,3.8-4.3,3.4c-1.8-0.9-3.7-2.9-4.1-4.8c-0.9-4.4-1.1-8.9-1.4-13.4
	c-0.3-5.3-1.7-6.6-6.8-5.2c-2.7,0.8-5.3,2.4-7.6,4.2c-2.6,2-4.6,4.8-7.3,6.7c-1.8,1.3-4.3,1.5-6.4,2.2c-0.2-1.9-0.7-3.9-0.5-5.8
	c0.5-5.2,1.3-10.4,2.1-16.9c-3.1,1.7-4.7,2.6-6.3,3.6c-4.1,2.6-8,5.6-12.3,7.8c-6.3,3.2-10.6,0.3-10.6-6.8c0-2.3,0.4-4.5,0.3-6.8
	c-0.2-2-0.9-3.9-1.3-5.8c-2.1,0.6-4.5,0.8-6.1,2c-4.3,3.3-8.1,7.1-12.3,10.4c-1.6,1.3-3.9,1.6-5.9,2.4c-0.4-2.1-1.2-4.2-1.1-6.2
	c0.7-7.8,1.9-15.5,2.4-23.3c0.3-4.9-1.6-6.2-6-4.2c-3.7,1.7-7.3,4.1-10.2,7c-3.6,3.5-6.4,7.7-9.6,11.6c-2.7,3.2-5.6,3.4-7.2-0.6
	c-1.4-3.2-1.7-6.9-2.4-10.4c-0.5-2.8-0.9-5.7-1.3-8.5c-2.9,0.9-5.9,1.5-8.6,2.9c-2.3,1.2-4.1,3.2-6.1,4.8c-2.4,2-4.6,4.3-7.2,6
	c-7.6,4.8-15,1-15.4-8c-0.2-3.8,0.5-7.6,0.7-11.4c0.1-2.1,0-4.3,0-7c-2.2,0.7-3.3,1-4.3,1.5c-7.7,3.7-15.3,7.5-23,11
	c-1.4,0.7-3.7,1.4-4.7,0.8c-1-0.6-1.1-3-1.1-4.6c0.1-3.6,0.5-7.3,0.8-10.9c0.2-3.1-0.9-4.7-4.3-3.7c-6.8,2.1-13.7,4-20.3,6.5
	c-6.7,2.5-7.5,2.3-8.4-5.2c-0.6-5.1-1.1-10.2-1.8-15.8c-2,0.8-3.3,1.1-4.5,1.7c-7.8,4.2-15.6,8.4-23.4,12.6c-4.6,2.5-6.3,1.7-7-3.4
	c-0.6-4.5-1-9-1.5-13.5c-0.4-3.2-1.9-4.1-5-2.9c-8.3,3.2-14.8,8.2-19,16.2c-2.5,4.7-3.7,5-7.6,1.2c-3.3-3.1-6.4-6.4-9.5-9.7
	c-2.1-2.2-4.3-2.5-6.2-0.2c-3.7,4.5-7.5,9-10.3,14.1c-3,5.4-5.4,6.1-9.2,0.9c-2.1-2.8-3.7-5.9-5.6-8.8c-4.3-6.5-6.9-6.4-10.5,0.5
	c-1.8,3.5-3.4,7.2-5.3,10.7c-0.6,1.1-1.7,2.7-2.6,2.7c-1,0-2.4-1.3-3.1-2.3c-1.4-2.2-2.3-4.7-3.5-7c-2.5-4.5-6.2-5.4-9.6-1.6
	c-3.5,4-6.3,8.7-9.3,13.1c-1.9,2.9-3.7,5.9-5.6,8.9c-2.6-2.9-5.4-5.7-7.6-8.8c-2.3-3.3-4.1-7-6.9-12c-4.1,7.1-7.7,12.6-10.6,18.4
	c-3.4,6.7-3.6,6.9-9.4,1.7c-3.8-3.4-7.6-6.8-12.4-11.1c-2.3,6.8-4.3,12.3-6.1,17.9c-1.2,3.9-3.6,4.6-6.6,2.4c-2.6-1.9-5-4.2-7.3-6.6
	c-1.3-1.4-1.9-3.2-2.9-4.9c-0.9,0.3-1.8,0.6-2.6,1c-2.1,5-4.3,10-6.2,15c-1.7,4.5-2.8,4.9-6.6,1.9c-2.7-2.2-5.3-4.6-8.2-6.5
	c-4.6-3.1-7.1-2.2-8.2,3.2c-0.8,4.2-0.9,8.6-1.2,12.9c-0.3,4.6-1.9,5.7-5.9,3.4c-2.9-1.6-5.4-3.8-8.1-5.7c-6.8-4.8-9.3-4-10.8,4.2
	c-1,5.5-1.3,11.2-1.9,17.7c-7.4-5.2-14.4-10.1-21.5-15c-0.5,0.3-1,0.6-1.4,0.9c0.6,2.7,1.3,5.4,1.9,8.1c0.3,1.5,0.2,3,0.3,4.5
	C52,93.6,50.3,94,49,93.6c-6.1-2.1-12.2-4.4-18.9-6.9c0,2.5-0.1,3.8,0,5.2c0.5,7.1,0,7.8-7.3,8.8c-3.5,0.5-7.1,0.5-12,0.9
	c3.5,5.5,6.4,9.9,9.3,14.4c3,4.6,2.2,7.4-3,9.2c-3,1-6.2,1.3-9.4,2c4.8,5.6,9.2,11,13.9,16.1c3.4,3.6,4.9,6.8-0.3,9.9
	c12.7,12.2,12.7,12.2,7.1,20.4c1.5,0.9,2.9,1.7,4.3,2.6c6.6,3.9,6.8,6,1,11.2c-1.8,1.7-3.9,3.1-6.1,4.9c8.6,5.4,21.7,2.8,21.1,17.2
	c1.4,0.1,2.6,0.5,3.7,0.3c4.6-0.7,9.2-1.8,13.9-2.3c7-0.7,9.3,2,9,9c-0.2,5.2,0.1,10.5,1,15.5c0.9,4.7,3.6,5.4,6.9,2
	c3.3-3.5,6.1-7.5,9-11.4c4.3-6,10.5-5.9,14.3,0.5c1,1.6,1.2,3.6,2,5.3c2.1,4.5,4.3,8.9,6.4,13.3c0.8,0,1.5,0,2.3,0
	c1.5-3.9,3.1-7.7,4.6-11.6c2.5-6.6,4.8-7.8,11.8-7.6c7.6,0.2,13.7,3.5,19.3,8.1C155.5,232.5,158.1,234.3,161.4,236.7z"/>
<path d="M156.7,90.7c1.1,1.4,2.5,2.7,3.1,4.3c3.1,7.9,5.4,16.1,9,23.8c4.6,9.9,9.9,19.4,15.2,28.9c0.6,1,2.9,1.8,4.2,1.6
	c11.1-2.2,12.4-4.9,6.9-15c-2.4-4.4-5.6-8.4-8-12.8c-0.8-1.5-0.4-3.6-0.6-5.5c1.3,1,3.1,1.7,3.8,3c4.5,7.5,8.8,15.2,13.2,22.7
	c0.4,0.7,1.1,1.4,1.9,1.6c4.9,1.6,14.2-2.7,16.3-7.6c0.4-0.9,0.2-2.3-0.2-3.3c-0.4-1.1-1.2-2.2-2.2-2.9
	c-12.9-8.4-16.3-22.4-20.8-35.6c-1.7-5-2.5-10.4-3.6-15.7c-0.3-1.4,0.2-2.8,0.3-4.3c0.5-0.2,1-0.3,1.5-0.5c0.9,1.4,2,2.7,2.5,4.2
	c4,12.5,7.8,25.1,12,37.6c0.7,2,2.4,3.7,4,5.3c1.8,1.9,4.3,3.1,5.9,5.1c2.5,3.1,6.9,7.5,6.1,9.6c-2.2,5.5-5.9,10.5-13.2,11.8
	c-9,1.7-17.8,4.5-26.5,7.4c-4.5,1.5-6.4,0.5-8.2-3.9c-2.3-5.8-6-10.9-8.6-16.6c-3.2-7-6-14.2-8.9-21.4c-2-4.8-3.9-9.7-5.6-14.6
	c-0.8-2.1-1-4.4-1.5-6.6C155.4,91.4,156.1,91.1,156.7,90.7z"/>
<path d="M538.1,142.8c2.7,4.4,6.3,9.9,9.6,15.5c3.1,5.2-2.2,18.1-8.6,20.1c-8.5,2.7-17.2,3.9-26,0.2c-7.6-3.2-9.1-8-6.9-15.8
	c4.5-16.1,13.4-30.8,14.6-48c0.1-1.3,4.4-3.8,5.7-3.3c7,2.9,13.7,6.3,20.3,10.1c1,0.5,1.4,3.8,0.7,5.1
	C544.8,132,541.5,137.1,538.1,142.8z M517.7,143.4c-2.1,6.8-3.8,13.1-5.9,19.3c-2.8,8,0.4,13.7,9.1,14c5.1,0.1,10.4-0.8,15.3-2.4
	c5.8-1.8,7.8-12.2,5.2-17.6c-4.3-9.2-10.1-14.5-20.8-12.6C520,144.1,519.3,143.8,517.7,143.4z M520.5,139.4
	c7.6,0.4,14.2-0.8,19.2-6.5c4.9-5.6,4.3-9.8-2.1-13.3c-2.5-1.4-5.3-2.5-8.1-3.4c-2.3-0.7-3.8-0.1-4.3,2.8
	C523.8,125.7,522.1,132.4,520.5,139.4z"/>
<path d="M610.6,196.4c-9,4.5-15-0.1-21.1-3.6c-2.9-1.7-3.1-4.5-1.8-7.3c2-4.6,4.8-9,6.2-13.7c1.8-6.4,2.7-13.1,3.9-19.7
	c0.3-1.6,0.4-3.2,0.6-4.8c0.6-0.1,1.2-0.2,1.8-0.3c0.6,1.8,1.6,3.6,1.9,5.5c1.8,11-2.8,20.4-7.4,29.8c-3.4,6.9-3.3,7.4,3.5,10.4
	c4.7,2.1,7.6,1.1,9.7-3.6c1.1-2.5,1.2-5.5,2.4-7.9c2.8-5.7,5.9-11.2,9.1-16.7c0.2-0.3,2.7,0.7,4,1.3c0.3,0.1,0.2,1.4,0,2
	c-5.5,14.9-5.6,31.7-15.4,45c-2.3,3.1-4.6,6.1-7.3,8.8c-4.5,4.5-8.9,8.8-9.4,15.7c-0.1,1-1.5,1.9-2.2,2.8c-0.6-1.2-1.8-2.5-1.7-3.6
	c0.4-6.5,3-11.9,8.1-16.3C602.2,214.1,606.6,206.3,610.6,196.4z"/>
<path d="M132.8,99c0.5,1.4,1.8,3.1,1.4,4.3c-1.6,5.7,1.4,10,4.6,13.7c3.9,4.6,8.8,8.4,12.9,12.8c7.5,8.1,14.8,16.5,21.9,24.9
	c1.1,1.3,1.4,3.5,1.5,5.3c0.1,0.8-1.3,2.3-2,2.3c-0.9,0-2.1-1-2.7-1.8c-3.6-5.3-6.8-11-10.8-16c-3.6-4.5-8.4-1.6-12.5-0.4
	c-3.9,1.2-3.3,4.4-2.8,7.8c0.9,6.4,1.2,12.8,1.5,19.2c0.1,1.5-1,3.1-1.9,4.3c-0.3,0.4-2.7-0.2-3.1-0.9c-0.7-1.2-0.7-2.9-0.9-4.4
	c-0.7-6.1-1.4-12.2-2.2-18.3c-0.3-2.3-0.2-4.7-1-6.9c-1.4-3.7-3.6-7.1-5.1-10.8c-1.9-4.6-3.5-9.4-5.1-14.1
	C123.9,112.1,122.6,104.4,132.8,99z M151.8,137.4c-7.2-7.2-14.4-14.3-21.5-21.3c1.4,8.2,5.3,15.9,9.9,23.2c0.4,0.7,2.2,1.2,3.1,1
	C146.2,139.4,149.1,138.3,151.8,137.4z"/>
<path d="M559.4,125.3c5.5,3.7,5.2,8.5,4.4,12.9c-1.9,11.7-4.1,23.3-10.1,33.8c-1,1.7-1.1,3.8-2,7.2c9.9-7,19.5-11.8,24.8-22
	c2.8-5.4,7.7-9.7,11.8-14.5c0.5-0.6,2.2-1,2.7-0.6c0.8,0.7,1.7,2.3,1.4,3c-5.5,12.6-5.1,27.6-16,38c-2.2,2.1-3.6,5-5.5,7.8
	c-3-1-4.5-2.9-2.2-6c2.4-3.4,5.6-6.3,7.6-9.9c2.7-4.9,4.6-10.2,5.9-15.6c-4.1,4.4-7.9,9.3-12.4,13.2c-5.6,4.9-11.8,9.1-18,13.4
	c-1.3,0.9-3.6,1.3-4.9,0.8c-0.8-0.3-1.4-3.1-1-4.5c2.1-6.8,4.6-13.4,6.9-20.1c3.8-10.9,8.1-21.8,6-33.8
	C558.6,127.7,559,127,559.4,125.3z"/>
<path d="M424.2,104.9c-1.7,1.4-3.7,2.5-5.1,4.2c-5.4,6.6-10.5,13.3-15.7,19.9c-0.6,0.8-0.9,2.1-1.7,2.6c-2.8,1.8-5.8,3.3-8.7,4.9
	c-0.4-2.7-1.4-5.5-1-8.1c1.3-9.6,3.3-19.1,4.7-28.6c0.6-4.2,0.2-8.6,0.6-12.8c0.2-2.7,0.7-5.5,1.6-8c0.4-1,2.3-1.4,3.6-2.1
	c0.2,1.3,0.5,2.7,0.4,4c-0.2,3.2-0.4,6.4-0.8,9.6c-0.8,6.2-1.5,12.3-2.5,18.5c-1,6.2-2.3,12.4-3.8,20c2.2-1.1,2.9-1.3,3.3-1.7
	c7.9-9.1,15.9-18.2,23.6-27.5c2.1-2.5,3.3-5.6,5.2-8.3c0.7-1,2-1.5,3-2.3c0.6,1.2,1.8,2.5,1.7,3.7c-0.5,9.5-1,19-2,28.5
	c-0.9,8.8-2.5,17.5-3.9,26.2c-0.1,0.8-1.5,1.5-2.3,2.2c-0.9-1.1-2.6-2.3-2.5-3.4c0.4-5.5,1.2-11,1.9-16.5c0.9-8,1.8-16,2.7-24
	C425.6,105.4,424.9,105.2,424.2,104.9z"/>
<path d="M239.5,135.6c3.4-9.1,0.8-19.1-4.6-21.7c-0.4-4.3-0.5-8.2-1.2-11.8c-2.2-10.9-4.7-21.7-6.9-32.5c-0.2-1.2,0.3-2.5,0.5-3.8
	c1.3,0.3,2.9,0.2,3.7,1c6,5.7,11.9,11.6,17.8,17.4c6.6,6.4,13.5,12.4,19.7,19.1c3.9,4.2,6.9,9.4,10.1,14.3c0.7,1.1,0.5,2.9,0.8,4.4
	c-0.4,0.4-0.8,0.7-1.2,1.1c-1.3-1.1-3-1.9-3.9-3.3c-2-3-3.4-6.4-5.4-9.4c-4.8-7.3-15.4-10.2-23.5-6.3c-3.5,1.7-4.2,4.9-3.3,8.4
	c0.8,2.8,2.3,5.5,2.8,8.4c0.7,3.9,1.1,7.9,0.7,11.8C245.4,135.6,243.4,137.9,239.5,135.6z M239,100.6c5.1-1,9.6-1.9,15.1-3.1
	c-6.8-7.8-13.1-15-19.3-22.2c-0.4,0.4-0.8,0.7-1.2,1.1C235.3,84.4,237.1,92.3,239,100.6z"/>
<path d="M78.1,138.6c1.1,21.7,9.9,32.4,28.2,39.4c1.6,0.6,4.8-0.2,5.9-1.5c4.3-5.1,8-10.7,12-16.1c0.7-1,1.9-1.6,2.8-2.4
	c0.5,1.2,1.5,2.4,1.4,3.5c-0.1,1.8-0.7,3.8-1.6,5.4c-8.6,16.2-14.6,17.4-31.4,10.7c-16.6-6.7-31.2-38.2-18.3-59.2
	c5.4-8.8,16.3-12.1,25.2-6.9c1.7,1,2.8,3,4.1,4.5c-2-0.1-4.3,0.2-6-0.5c-7.2-3-14.9-1.2-18.2,6C79.9,126.9,77.8,133,78.1,138.6z"/>
<path d="M443.7,89.9c3.5,6.1,3.5,12.7,2.8,19.5c-0.3,2.6-0.6,6.6,0.8,7.5c4,2.6,8.7,4,13.3,5.6c0.3,0.1,2.1-2.8,2.2-4.4
	c0.6-6.9,0.8-13.9,1.2-20.8c0-0.6,0.4-1.2,0.7-2.1c4.6,1.5,3.9,5.3,3.8,8.2c-0.7,13.3-1.5,26.7-5.9,39.5c-1.6,4.7-2.7,9.5-4.4,15.9
	c-1.3-2-3.3-3.8-3.1-5.2c0.5-4.2,1.8-8.4,3-12.5c3.6-12.2,3.7-12.1-7.3-17.6c-6.3-3.1-6.3-3.1-8.1,3.6c-1.8,6.5-3.6,13-5.5,19.6
	c-3.8,0.1-4.4-1.5-3.6-4.5c2.4-8.9,5.1-17.7,6.7-26.8c1.2-7.1,1-14.4,1.4-21.6c0.1-1.3,0.2-2.7,0.3-4
	C442.5,89.8,443.1,89.9,443.7,89.9z"/>
<path d="M496.2,164.3c-0.8,0.2-1.6,0.6-2.4,0.5c-6.3-0.6-12.6-1.3-18.9-1.8c-6.8-0.5-10.1-5.1-7.6-11.3c2.3-5.7,3.4-11.3,3.5-17.6
	c0-4.8,3.1-9.4,4.4-14.3c1.5-5.4,5.6-10.7,1.2-16.7c-0.7-1,0.2-3.2,0.6-6.6c6.1,7.9,14.1,5.7,21,7.8c3.3,1,6.2,3.6,9.2,5.4
	c-0.3,0.6-0.7,1.3-1,1.9c-1.5-0.4-3.1-0.7-4.5-1.3c-1.3-0.5-2.4-1.5-3.7-1.8c-4.1-0.8-8.9-3-12-1.6c-2.6,1.2-3.5,6.7-4.8,10.4
	c-3.9,11.3-4.3,7.4,6.3,13.7c1.5,0.9,2.9,1.9,4.4,2.8c-0.3,0.7-0.6,1.4-0.8,2.1c-2.6-0.9-5.3-1.7-7.9-2.5c-2-0.6-4.1-1.1-6.2-1.7
	c-0.5,2.1-1,4.2-1.5,6.3c-1.1,4.8-1.8,9.8-3.3,14.5c-1.8,5.4-1.6,6.1,3.9,6.3c4.7,0.2,9.4-0.1,14,0.5c2.4,0.3,4.6,2,6.9,3
	C496.6,163.1,496.4,163.7,496.2,164.3z"/>
<path d="M358.2,126.8c-0.4-2.3-1.7-5-1-7c3-9.4,4.3-18.7,3.1-28.7c-0.4-3.6,2.3-7.8,3.9-11.6c1.8-4.3,4.5-8.5,0-13.1
	c1-0.4,1.8-1,2.2-0.8c8.5,3.5,17.8,5.7,23.1,14.5c3.4,5.7,1,19.7-4.4,23.6c-1.2,0.8-2.9,1.2-4.3,1.3c-1.7,0.2-3.5-0.4-5.2-0.2
	c-11.7,1.1-9.8-1.1-12.1,9.7c-0.9,4-2.1,7.9-3.2,11.9C359.6,126.5,358.9,126.6,358.2,126.8z M374,101.1c8.1,0.2,7.6,0,11.6-8.4
	c4.6-9.7-4.2-19-11.5-19.6c-1.2-0.1-3.1,0.7-3.5,1.7c-2.1,4.2-3.9,8.5-5.5,12.9C362.1,95.8,365.5,100.8,374,101.1z"/>
<path d="M325,116.8c1.9-18.5,3.7-37,5.8-55.5c0.1-1.3,2.5-3.5,3.5-3.3c8.6,1.5,17.2,3.5,25.8,5.4c0.5,0.1,0.8,0.9,0.9,2.8
	c-5.5-0.8-10.9-1.5-16.4-2.4c-1.7-0.3-3.3-1-4.9-1.6c-3.1-1.2-4.6-0.1-4.9,3.1c-1.2,11.9-2.6,23.7-3.6,35.6
	C330.6,106.9,329.9,112.5,325,116.8z"/>
</svg>
